<svg viewBox="0 0 330 200" xmlns="http://www.w3.org/2000/svg"><g><g><g><g><g><line x1="60" y1="177" x2="55" y2="177" style="visibility: inherit;" fill="rgb(0, 0, 0)" stroke="rgb(204, 204, 204)" stroke-width="1px"></line><line x1="60" y1="159.3" x2="55" y2="159.3" style="visibility: inherit;" fill="rgb(0, 0, 0)" stroke="rgb(204, 204, 204)" stroke-width="1px"></line><line x1="60" y1="141.6" x2="55" y2="141.6" style="visibility: inherit;" fill="rgb(0, 0, 0)" stroke="rgb(204, 204, 204)" stroke-width="1px"></line><line x1="60" y1="123.89999999999999" x2="55" y2="123.89999999999999" style="visibility: inherit;" fill="rgb(0, 0, 0)" stroke="rgb(204, 204, 204)" stroke-width="1px"></line><line x1="60" y1="106.2" x2="55" y2="106.2" style="visibility: inherit;" fill="rgb(0, 0, 0)" stroke="rgb(204, 204, 204)" stroke-width="1px"></line><line x1="60" y1="88.50000000000001" x2="55" y2="88.50000000000001" style="visibility: inherit;" fill="rgb(0, 0, 0)" stroke="rgb(204, 204, 204)" stroke-width="1px"></line><line x1="60" y1="70.8" x2="55" y2="70.8" style="visibility: inherit;" fill="rgb(0, 0, 0)" stroke="rgb(204, 204, 204)" stroke-width="1px"></line><line x1="60" y1="53.10000000000001" x2="55" y2="53.10000000000001" style="visibility: inherit;" fill="rgb(0, 0, 0)" stroke="rgb(204, 204, 204)" stroke-width="1px"></line><line x1="60" y1="35.39999999999999" x2="55" y2="35.39999999999999" style="visibility: inherit;" fill="rgb(0, 0, 0)" stroke="rgb(204, 204, 204)" stroke-width="1px"></line><line x1="60" y1="17.700000000000017" x2="55" y2="17.700000000000017" style="visibility: inherit;" fill="rgb(0, 0, 0)" stroke="rgb(204, 204, 204)" stroke-width="1px"></line><line x1="60" y1="0" x2="55" y2="0" style="visibility: inherit;" fill="rgb(0, 0, 0)" stroke="rgb(204, 204, 204)" stroke-width="1px"></line></g><g transform="translate(50, 0)"><text x="0" y="177" dx="0em" dy="0.3em" style="text-anchor: end; visibility: hidden; font-family: Roboto, sans-serif; font-size: 12px; font-weight: 200;" fill="rgb(33, 33, 33)" stroke="none" stroke-width="1px">4e-3</text><text x="0" y="159.3" dx="0em" dy="0.3em" style="text-anchor: end; visibility: inherit; font-family: Roboto, sans-serif; font-size: 12px; font-weight: 200;" fill="rgb(33, 33, 33)" stroke="none" stroke-width="1px">5e-3</text><text x="0" y="141.6" dx="0em" dy="0.3em" style="text-anchor: end; visibility: hidden; font-family: Roboto, sans-serif; font-size: 12px; font-weight: 200;" fill="rgb(33, 33, 33)" stroke="none" stroke-width="1px">6e-3</text><text x="0" y="123.89999999999999" dx="0em" dy="0.3em" style="text-anchor: end; visibility: inherit; font-family: Roboto, sans-serif; font-size: 12px; font-weight: 200;" fill="rgb(33, 33, 33)" stroke="none" stroke-width="1px">7e-3</text><text x="0" y="106.2" dx="0em" dy="0.3em" style="text-anchor: end; visibility: hidden; font-family: Roboto, sans-serif; font-size: 12px; font-weight: 200;" fill="rgb(33, 33, 33)" stroke="none" stroke-width="1px">8e-3</text><text x="0" y="88.50000000000001" dx="0em" dy="0.3em" style="text-anchor: end; visibility: inherit; font-family: Roboto, sans-serif; font-size: 12px; font-weight: 200;" fill="rgb(33, 33, 33)" stroke="none" stroke-width="1px">9e-3</text><text x="0" y="70.8" dx="0em" dy="0.3em" style="text-anchor: end; visibility: hidden; font-family: Roboto, sans-serif; font-size: 12px; font-weight: 200;" fill="rgb(33, 33, 33)" stroke="none" stroke-width="1px">0.01</text><text x="0" y="53.10000000000001" dx="0em" dy="0.3em" style="text-anchor: end; visibility: inherit; font-family: Roboto, sans-serif; font-size: 12px; font-weight: 200;" fill="rgb(33, 33, 33)" stroke="none" stroke-width="1px">0.011</text><text x="0" y="35.39999999999999" dx="0em" dy="0.3em" style="text-anchor: end; visibility: hidden; font-family: Roboto, sans-serif; font-size: 12px; font-weight: 200;" fill="rgb(33, 33, 33)" stroke="none" stroke-width="1px">0.012</text><text x="0" y="17.700000000000017" dx="0em" dy="0.3em" style="text-anchor: end; visibility: inherit; font-family: Roboto, sans-serif; font-size: 12px; font-weight: 200;" fill="rgb(33, 33, 33)" stroke="none" stroke-width="1px">0.013</text><text x="0" y="0" dx="0em" dy="0.3em" style="text-anchor: end; visibility: hidden; font-family: Roboto, sans-serif; font-size: 12px; font-weight: 200;" fill="rgb(33, 33, 33)" stroke="none" stroke-width="1px">0.014</text></g><line x1="60" y1="0" x2="60" y2="177" fill="rgb(0, 0, 0)" stroke="rgb(204, 204, 204)" stroke-width="1px"></line></g></g><g transform="translate(60, 0)" clip-path="url(#clip_0)"><clipPath id="clip_0"><rect width="270" height="177"></rect></clipPath><g><g><g><line x1="0" y1="0" x2="0" y2="177" fill="rgb(0, 0, 0)" stroke="rgb(66, 66, 66)" stroke-width="1px" opacity="0.25"></line><line x1="27" y1="0" x2="27" y2="177" fill="rgb(0, 0, 0)" stroke="rgb(66, 66, 66)" stroke-width="1px" opacity="0.25"></line><line x1="54" y1="0" x2="54" y2="177" fill="rgb(0, 0, 0)" stroke="rgb(66, 66, 66)" stroke-width="1px" opacity="0.25"></line><line x1="81" y1="0" x2="81" y2="177" fill="rgb(0, 0, 0)" stroke="rgb(66, 66, 66)" stroke-width="1px" opacity="0.25"></line><line x1="108" y1="0" x2="108" y2="177" fill="rgb(0, 0, 0)" stroke="rgb(66, 66, 66)" stroke-width="1px" opacity="0.25"></line><line x1="135" y1="0" x2="135" y2="177" fill="rgb(0, 0, 0)" stroke="rgb(66, 66, 66)" stroke-width="1px" opacity="0.25"></line><line x1="162" y1="0" x2="162" y2="177" fill="rgb(0, 0, 0)" stroke="rgb(66, 66, 66)" stroke-width="1px" opacity="0.25"></line><line x1="189" y1="0" x2="189" y2="177" fill="rgb(0, 0, 0)" stroke="rgb(66, 66, 66)" stroke-width="1px" opacity="0.25"></line><line x1="216" y1="0" x2="216" y2="177" fill="rgb(0, 0, 0)" stroke="rgb(66, 66, 66)" stroke-width="1px" opacity="0.25"></line><line x1="243" y1="0" x2="243" y2="177" fill="rgb(0, 0, 0)" stroke="rgb(66, 66, 66)" stroke-width="1px" opacity="0.25"></line><line x1="270" y1="0" x2="270" y2="177" fill="rgb(0, 0, 0)" stroke="rgb(66, 66, 66)" stroke-width="1px" opacity="0.25"></line></g><g><line x1="0" y1="177" x2="270" y2="177" fill="rgb(0, 0, 0)" stroke="rgb(66, 66, 66)" stroke-width="1px" opacity="0.25"></line><line x1="0" y1="159.3" x2="270" y2="159.3" fill="rgb(0, 0, 0)" stroke="rgb(66, 66, 66)" stroke-width="1px" opacity="0.25"></line><line x1="0" y1="141.6" x2="270" y2="141.6" fill="rgb(0, 0, 0)" stroke="rgb(66, 66, 66)" stroke-width="1px" opacity="0.25"></line><line x1="0" y1="123.89999999999999" x2="270" y2="123.89999999999999" fill="rgb(0, 0, 0)" stroke="rgb(66, 66, 66)" stroke-width="1px" opacity="0.25"></line><line x1="0" y1="106.2" x2="270" y2="106.2" fill="rgb(0, 0, 0)" stroke="rgb(66, 66, 66)" stroke-width="1px" opacity="0.25"></line><line x1="0" y1="88.50000000000001" x2="270" y2="88.50000000000001" fill="rgb(0, 0, 0)" stroke="rgb(66, 66, 66)" stroke-width="1px" opacity="0.25"></line><line x1="0" y1="70.8" x2="270" y2="70.8" fill="rgb(0, 0, 0)" stroke="rgb(66, 66, 66)" stroke-width="1px" opacity="0.25"></line><line x1="0" y1="53.10000000000001" x2="270" y2="53.10000000000001" fill="rgb(0, 0, 0)" stroke="rgb(66, 66, 66)" stroke-width="1px" opacity="0.25"></line><line x1="0" y1="35.39999999999999" x2="270" y2="35.39999999999999" fill="rgb(0, 0, 0)" stroke="rgb(66, 66, 66)" stroke-width="1px" opacity="0.25"></line><line x1="0" y1="17.700000000000017" x2="270" y2="17.700000000000017" fill="rgb(0, 0, 0)" stroke="rgb(66, 66, 66)" stroke-width="1px" opacity="0.25"></line><line x1="0" y1="0" x2="270" y2="0" fill="rgb(0, 0, 0)" stroke="rgb(66, 66, 66)" stroke-width="1px" opacity="0.25"></line></g></g></g><g><g><line x1="0" y1="247.79999999999998" x2="270" y2="247.79999999999998" fill="rgb(0, 0, 0)" stroke="rgb(153, 153, 153)" stroke-width="1.5px"></line></g></g><g><g><line x1="27" y1="0" x2="27" y2="177" fill="rgb(0, 0, 0)" stroke="rgb(153, 153, 153)" stroke-width="1.5px"></line></g></g><g><g><g><g><g><path stroke="rgb(255, 112, 67)" stroke-width="2px" d="M32.4,-0.17221005096752728L32.67,2.47429374305037L32.94,2.6617065725313314L33.21,6.226453421337748L33.48,8.309355662687404L33.75,8.25928871192807L34.02,8.192290512047972L34.29,4.265131409914911L34.56,-0.1513913689250619L34.83,4.441525170919594L35.1,3.5165163000616744L35.370000000000005,7.690084099049295L35.64,13.71551880627847L35.910000000000004,12.883549367432645L36.18,13.74662616219342L36.45,13.798939310948557L36.720000000000006,10.957635282540139L36.99,12.53418011420084L37.260000000000005,14.35543575336854L37.53,12.987231626173706L37.800000000000004,13.88107677982071L38.06999999999999,14.04504062175189L38.339999999999996,14.346355196261547L38.61,14.505437270385245L38.879999999999995,18.677593096083285L39.15,18.517335692625696L39.419999999999995,19.91094328115519L39.69,18.486304030387235L39.96,21.17094080902895L40.23,20.508173326890798L40.5,23.204207919396808L40.769999999999996,24.518027600267114L41.04,26.860647574737907L41.31,26.894683714315498L41.58,27.063860710028056L41.85,26.014946338571672L42.12,29.16499807926341L42.39,31.137365452601713L42.660000000000004,28.880093973370716L42.93,28.746685146386795L43.2,30.733692497667974L43.47,32.1152302430018L43.74,33.30749565219547L44.010000000000005,33.5720326710085L44.28,35.2818389164412L44.550000000000004,33.95872067493222L44.82,33.78494706172959L45.09,37.039315406198625L45.36,35.44530909998139L45.63,38.68926475014043L45.900000000000006,39.18061865130513L46.17,40.528171543535265L46.44,40.274078675363484L46.709999999999994,39.92281438127401L46.98,41.23363933959746L47.25,41.885001718694824L47.519999999999996,41.59999132257391L47.79,39.06877369762477L48.059999999999995,42.83540639448772L48.33,48.083574279359645L48.6,48.76922287566165L48.87,47.47771318091572L49.14,50.67109268625748L49.41,54.30168361020192L49.68,54.28277186901633L49.95,51.830683799393555L50.22,51.91968032348607L50.49,54.3178668116239L50.76,53.80290801314753L51.03,55.23433032148031L51.3,57.00315608360139L51.57,55.24503725306848L51.84,54.65689233980573L52.11,54.0481211989641L52.38,53.706668595643016L52.65,55.79395418445537L52.92,56.683075088443L53.190000000000005,55.129891723502666L53.46,57.12707006609976L53.730000000000004,56.10712282584035L54,55.158120837366134L54.27,56.15298461231919L54.540000000000006,59.29499680854875L54.81,57.865611362504936L55.08,61.034818039863104L55.349999999999994,60.785067253428L55.62,58.808144168625645L55.89,64.12192488674542L56.16,61.45856420197619L56.43,64.21257038681824L56.699999999999996,66.24489358198117L56.97,65.15685919124766L57.239999999999995,63.46338437437347L57.51,63.422418247993754L57.78,65.62740771671295L58.05,65.32895530998802L58.32,66.58502315694152L58.589999999999996,71.13659270503557L58.86,71.26851670204661L59.13,72.43916979556717L59.4,68.20827899322177L59.67,65.69367987451113L59.94,67.30806323431229L60.21,69.13651345963652L60.480000000000004,72.44409676191435L60.75,71.96908052263991L61.02,71.57342082827293L61.29,71.53626443158987L61.56,71.1960193017805L61.830000000000005,73.52833491830138L62.1,74.32045842092103L62.370000000000005,73.33857006031793L62.64,72.68053221195058L62.910000000000004,72.9734852265663L63.18000000000001,75.16246500738546L63.449999999999996,76.82112213121705L63.72,77.01843801347528L63.989999999999995,75.38286658321684L64.25999999999999,76.26140031304875L64.53,75.59170625976871L64.8,76.579571710957L65.07,78.15633110787444L65.34,78.51324054173216L65.61,79.78035094154828L65.88,79.16780873991819L66.15,82.55115256641965L66.42,78.79205840906296L66.69,77.76742024589059L66.96,77.58269581239506L67.23,78.80990067715096L67.5,80.89170088645606L67.77,80.1873586966204L68.04,81.11688378087324L68.31,78.92608728606488L68.58,79.25100370227688L68.85,79.7921920906269L69.12,80.8544703579404L69.39,81.39386058160412L69.66,81.37111770813911L69.93,81.66955482605248L70.2,81.95652404185029L70.47,83.06109674546654L70.74000000000001,84.3288973240467L71.01,84.75390893598868L71.28,83.32606868642851L71.55,84.82575154094867L71.82000000000001,85.04939055436236L72.09,83.97864274795879L72.36,85.02206781843918L72.63000000000001,85.83612425499926L72.9,88.16105981215104L73.17,85.61716379221835L73.44000000000001,87.74578243909214L73.71000000000001,87.59754013787469L73.98,89.1497561989472L74.25,89.60245111305987L74.52000000000001,89.03730624419137L74.79,89.50677301854898L75.06,92.29303492946035L75.33000000000001,91.02529216136102L75.60000000000001,93.36714425698261L75.87,90.65450934747065L76.13999999999999,90.28556582259657L76.41,91.3939706526847L76.67999999999999,92.8530411847026L76.94999999999999,90.91293975547498L77.22,93.55629616400927L77.49,92.61037723047333L77.75999999999999,92.07691562934399L78.03,91.54089290329026L78.3,90.84434466885453L78.57,89.30839032099797L78.83999999999999,92.61607761303277L79.11,92.45549464565335L79.38,91.41990936423434L79.64999999999999,91.36216675236874L79.92,94.12137145069272L80.19,95.11102962325234L80.46,95.11630473005901L80.72999999999999,95.6284028614648L81,97.28400731802512L81.27,96.57186000895814L81.53999999999999,96.46342626096198L81.81,94.3077274714791L82.08,95.92666818051835L82.35,98.14888938545764L82.62,99.11041954743614L82.89,99.24473784141392L83.16,97.9426890744129L83.42999999999999,98.43517057915683L83.7,98.06743234109973L83.97,99.09954518176374L84.24,97.61091846553836L84.51,98.97844733314727L84.78,101.13353585879213L85.05,101.38138509470348L85.32000000000001,101.28857166098429L85.59,100.5862595571689L85.86,100.44386103621795L86.13,101.0595104564528L86.4,101.84108947302698L86.67,102.00957225284459L86.94,101.96280995441364L87.21000000000001,101.98970500309996L87.48,98.85255910682518L87.75,99.84787582265042L88.02000000000001,102.12451728049936L88.29,102.61471184977307L88.56,101.64121046417007L88.83,101.1258825895372L89.10000000000001,103.77154924912348L89.37,102.76357786442696L89.64,102.55197457692539L89.91000000000001,103.45175394518088L90.18,104.4760126444871L90.45,104.78519747365563L90.72,107.24337435608535L90.99000000000001,106.51721618202588L91.26,106.45669325189152L91.53,106.17132644025301L91.80000000000001,105.73015106837639L92.07000000000001,107.19809576017076L92.34,106.80112961436758L92.61000000000001,107.14033285650882L92.88,107.23273669375938L93.14999999999999,108.55138919215777L93.41999999999999,108.45743053800689L93.69,105.4807432836105L93.96,108.02016417403875L94.22999999999999,108.49500274312412L94.5,107.56247289390514L94.77,109.73092365852683L95.03999999999999,107.47632345731071L95.30999999999999,108.82534158080824L95.58,106.31700457513337L95.85,106.8652806465626L96.11999999999999,104.25613765894178L96.39,105.95559358852388L96.66,107.1811508280473L96.92999999999999,107.44308589771018L97.2,106.6689832989849L97.47,106.27043959674103L97.74,104.4945114337019L98.00999999999999,105.61793247029851L98.28,107.52773226195976L98.55,106.89324645009283L98.82,108.02959539447214L99.09,109.19336603748192L99.36,105.39395947526332L99.63,108.25174771827717L99.9,107.43079537768519L100.17,109.13354840543482L100.44,107.35813549677499L100.71,109.12673908528667L100.98,110.45213313628423L101.25,112.97417081328743L101.52,114.01666132290669L101.79,111.35824364798968L102.06,112.08910367088143L102.33,110.41224793581144L102.6,111.77087250091418L102.87,112.2189888920652L103.14,114.75936091236872L103.41,114.88445008094669L103.68,112.18178825673797L103.95,110.71553364424312L104.22,112.5079729026759L104.49000000000001,113.93719848088647L104.76,113.91238272736803L105.03,113.39574081674418L105.3,115.09968236267689L105.57000000000001,116.03278091552927L105.84,115.54057865338368L106.11,116.27991774721053L106.38000000000001,115.23292176495853L106.65,114.47712825176632L106.92,116.06441875182104L107.19000000000001,115.71575443272299L107.46000000000001,118.26100836783354L107.73,116.76192644485654L108,115.39614653184307L108.27000000000001,114.39836342882688L108.54,114.87021749959335L108.81,115.22995607150165L109.08000000000001,114.83657170261482L109.35000000000001,114.18552299216712L109.62,116.05238750025825L109.88999999999999,114.77878860694285L110.16,116.96459678567719L110.42999999999999,116.89097917874021L110.69999999999999,117.90944970249753L110.97,118.25281531467807L111.24,117.788654417126L111.50999999999999,118.39431896721042L111.78,119.02882689082456L112.05,118.87338611435194L112.32,118.02605881706654L112.58999999999999,116.28827825108635L112.86,117.3274787462918L113.13,119.75277797831107L113.39999999999999,118.79920613782413L113.67,119.04205883647087L113.94,116.94227407458476L114.21,118.66094480772645L114.47999999999999,116.7898097859015L114.75,116.49931781492769L115.02,119.0905361977347L115.28999999999999,119.70882748229076L115.56,121.5478345348702L115.83,120.92271325077213L116.1,120.01241148284436L116.37,122.58007604611731L116.64,119.24855258201251L116.91,120.28529527610358L117.17999999999999,119.22712458760033L117.45,117.99135885188277L117.72,119.0960510790306L117.99,121.95472823917615L118.26,123.85153997862187L118.53,120.74403436853794L118.8,118.95944742008633L119.07000000000001,120.29041767847292L119.34,119.49206935946196L119.61,118.61442118828923L119.88,120.57554069024582L120.15,121.50003719068918L120.42,122.29017531908963L120.69,123.58486199520479L120.96000000000001,124.37030523772508L121.23,123.79798277589958L121.5,123.1819998052614L121.77000000000001,120.34482908230406L122.04,120.64926613826384L122.31,121.53445434515973L122.58,121.26168855217276L122.85000000000001,122.30456257544266L123.12,122.4393285222787L123.39,122.82602993490924L123.66000000000001,123.87030357967394L123.93,124.28991919190037L124.2,123.92037797498911L124.47,125.35509903119927L124.74000000000001,124.95172251365737L125.01,125.42495513440466L125.28,125.93017153028426L125.55000000000001,125.5079247059451L125.82000000000001,127.59400445503155L126.09,128.65097472433544L126.36000000000001,127.82714053132713L126.63,127.87804867454517L126.89999999999999,128.15738945724456L127.16999999999999,126.1239889672213L127.44,127.14411069934448L127.71,125.65030700972605L127.97999999999999,126.01011372706846L128.25,127.47093004018997L128.51999999999998,128.7458381167408L128.79,128.7458865772996L129.06,128.07185495876155L129.32999999999998,128.4270145024829L129.6,129.62070841020184L129.87,129.93605358601116L130.14,129.0602689267725L130.41,128.6516692982036L130.68,127.91692255681265L130.95,128.36014328790014L131.22,130.8311259603042L131.49,132.85869014415377L131.76,131.58837414221904L132.03,130.83997869498694L132.3,131.11819071744182L132.57,130.94424671604813L132.84,130.65913535803307L133.10999999999999,131.4939307308182L133.38,130.18940574636966L133.65,130.96095298401062L133.92,131.46798701284257L134.19,132.19857668368775L134.46,131.46474390291428L134.73,132.82612096600684L135,132.08793328647585L135.27,131.99189881247142L135.54,130.3308791717104L135.81,129.8148604576416L136.08,128.9140589581208L136.35,130.5795975754426L136.62,131.19081510378516L136.89000000000001,131.0997636763668L137.16,131.00313384121154L137.43,130.1146812765926L137.7,129.78234369004545L137.97,128.35916494664417L138.24,127.23020213938871L138.51,128.22121154768539L138.78,130.2973765810029L139.05,131.93335388822535L139.32,131.02251027255167L139.59,130.6848780568177L139.86,131.8332917012712L140.13,132.42236853766087L140.4,131.79497248874694L140.67000000000002,133.30968896610491L140.94,131.19278899140926L141.21,131.77884957124454L141.48000000000002,131.2741208419482L141.75,131.69008958058237L142.02,131.88252267266319L142.29000000000002,133.37092614158993L142.56,133.46107857039573L142.83,134.56534230819943L143.1,134.74076976365805L143.37,133.96406416855433L143.64000000000001,135.30061429492937L143.91,134.2230447416145L144.18,135.24173168940177L144.45000000000002,135.2445273789932L144.72,136.0327715829414L144.99,136.21299455391775L145.26000000000002,136.37251353801736L145.53,137.805700686523L145.8,137.21834775295775L146.07000000000002,137.42086715660645L146.34,136.08880993790717L146.61,134.99908734123284L146.88000000000002,134.89700015908704L147.15,135.727557704456L147.42000000000002,135.87562160647354L147.69,138.00152086038256L147.96,135.80808785643498L148.23000000000002,136.85717817045042L148.5,135.40987039415117L148.77,133.92716123690053L149.04000000000002,135.0235807045093L149.31,136.478245884257L149.58,136.22570380394308L149.85000000000002,135.4766516776362L150.12,135.25956156098715L150.39000000000001,134.85854117315338L150.66000000000003,135.44673208484846L150.93,137.02224253961322L151.20000000000002,137.3781652326815L151.47000000000003,137.77008016007736L151.74,136.58545988901017L152.01,136.58222496019934L152.27999999999997,136.60868993748508L152.54999999999998,136.7032457138555L152.82,137.6820511134241L153.08999999999997,138.21292800049628L153.35999999999999,138.56083924124027L153.63,139.25819377600783L153.89999999999998,139.05621574267525L154.17,140.2993083306836L154.44,140.518790310841L154.70999999999998,138.65594176916554L154.98,139.15833360429568L155.25,139.86655777723172L155.51999999999998,138.70375681060898L155.79,138.1681047891876L156.06,137.90127697201376L156.32999999999998,140.2639642130542L156.6,139.08130271382382L156.86999999999998,138.8168508103326L157.14,139.34227277477592L157.41,138.05791181752093L157.67999999999998,138.60313026832944L157.95,138.5028601612294L158.22,138.15787057776117L158.48999999999998,139.18937689378183L158.76,139.61188872465087L159.03,140.25253218194004L159.29999999999998,140.6528619772503L159.57,139.91878838934358L159.84,140.02060548319133L160.10999999999999,141.07701449873275L160.38,139.96572140444653L160.65,139.075001546975L160.92,139.1879948183811L161.19,141.10911316796637L161.45999999999998,141.37155023261604L161.73,141.2617012858075L162,138.5632284124006L162.26999999999998,140.4346887430137L162.54,140.31802306059512L162.81,140.5203757691891L163.07999999999998,139.94581891915266L163.35,140.610748301572L163.62,139.7795733512201L163.89,141.30209107299197L164.16,141.8388505253169L164.43,140.71742579448062L164.7,141.19122978259824L164.97,140.775781958012L165.24,140.76897584987174L165.51,141.80807177896793L165.78,143.0482803329855L166.05,142.58468179196296L166.32,143.24463063472618L166.59,143.4975515310115L166.85999999999999,143.7475808217613L167.13,143.96911435869265L167.4,144.30945780647951L167.67,144.1826338527987L167.94,142.14893671890434L168.21,143.25049807337126L168.48,140.6784201683533L168.75,141.5137352573533L169.02,142.39295468167418L169.29,144.12412517300817L169.56,144.0123508519326L169.83,144.37205443554487L170.1,145.73273201792458L170.37,145.35445076500787L170.64000000000001,146.89582726866252L170.91,145.6245144089177L171.18,145.63651702106682L171.45,145.22656411976035L171.72,144.53318242505438L171.99,145.62333391070513L172.26,146.80044214895457L172.53,147.42226075855547L172.8,145.66615305276306L173.07,145.424625835607L173.34,145.8180870250103L173.61,145.7493472243987L173.88,144.55995762366905L174.15,145.35068119000707L174.42000000000002,146.7699456394095L174.69,147.97254310774082L174.96,146.68315198080106L175.23000000000002,147.12215333212237L175.5,147.1286973698665L175.77,147.70141504786784L176.04000000000002,147.8631270075284L176.31,148.0852016174461L176.58,148.1461523567835L176.85,147.49737358183856L177.12,148.051334341861L177.39000000000001,147.26296216621827L177.66,148.4067495328178L177.93,149.4140195634657L178.20000000000002,151.05979404712878L178.47,150.32410384231903L178.74,149.29259401314914L179.01000000000002,149.14444329040325L179.28,148.16606400696682L179.55,148.62848010652215L179.82000000000002,149.04521973024575L180.09,147.95697341660124L180.36,147.4981888949839L180.63000000000002,149.49885137691902L180.9,150.36406477251535L181.17000000000002,150.00881027301483L181.44,149.83473221776086L181.71,149.04983203570364L181.98000000000002,148.68733296638916L182.25,149.4952923784923L182.52,151.2356986902816L182.79000000000002,150.9977356477179L183.06,148.60045106283414L183.33,148.29511642245404L183.60000000000002,150.1245664372322L183.87,148.75535774137242L184.14000000000001,148.72362696144378L184.41000000000003,150.47497122191427L184.68,150.17231543974898L184.95000000000002,149.65207944775713L185.22000000000003,149.87252934449967L185.49,151.5996757991556L185.76,150.45637196033854L186.02999999999997,150.54586903336443L186.29999999999998,151.8757045472133L186.57,152.44626936313318L186.83999999999997,153.59962801603558L187.10999999999999,153.39192083652665L187.38,153.76836982965978L187.64999999999998,152.92022059813445L187.92,153.77849194202008L188.19,153.5392600416731L188.45999999999998,154.15898533028908L188.73,154.53604606129258L189,153.17639328338223L189.26999999999998,151.55143140403936L189.54,152.62519933863587L189.81,150.73982195054953L190.07999999999998,150.81779619422832L190.35,151.29087086881566L190.61999999999998,153.49217560106734L190.89,153.88552247979771L191.16,154.99890011890847L191.42999999999998,153.34761643212508L191.7,151.7308375790803L191.97,153.76759580746818L192.23999999999998,152.70217516601403L192.51,151.72747823390554L192.78,152.329478219856L193.04999999999998,152.0106930197532L193.32,153.43646994717446L193.59,156.25433253161626L193.85999999999999,154.9734418346734L194.13,155.76075214813656L194.4,154.88184204918448L194.67,156.260917956664L194.94,154.78121213140122L195.20999999999998,154.63005382178443L195.48,155.17994299193157L195.75,155.48269370263776L196.01999999999998,156.1921320640502L196.29,155.8500337051426L196.56,155.19770431471315L196.82999999999998,155.54813807995586L197.1,155.64827918628734L197.37,156.00836032298136L197.64,153.75075191105563L197.91,155.71389518109058L198.18,156.42351181731877L198.45,155.79797868803894L198.72,155.42663155317754L198.99,153.52926441666753L199.26,155.76790951393411L199.53,156.18220668674925L199.8,155.53546725342522L200.07,155.38377705785544L200.34,156.76463938667126L200.60999999999999,156.64096453704684L200.88,157.08742629732637L201.15,157.54368718606798L201.42,156.75447953696587L201.69,157.84174500200476L201.96,157.55317747961476L202.23,156.31626834464666L202.5,155.80158463756797L202.77,156.88958085829353L203.04,157.94187495979273L203.31,157.75699291198015L203.58,157.8460360557947L203.85,159.71549000061233L204.12,159.19324473241974L204.39000000000001,159.80268163174395L204.66,159.49726016083363L204.93,159.6521816437483L205.2,158.05385389283538L205.47,158.7941921654656L205.74,158.497460481424L206.01,156.62271086582476L206.28,156.96919026022513L206.55,158.26952279728866L206.82,159.42434371454846L207.09,159.75695300932725L207.36,158.21241530350446L207.63,160.61616982085465L207.9,159.9412012317059L208.17000000000002,160.12295626183018L208.44,158.59693058523337L208.71,157.44365944649456L208.98000000000002,158.75348763323234L209.25,160.01619279522544L209.52,160.7163182718387L209.79000000000002,160.73865112992112L210.06,160.43791074846376L210.33,160.91048321720476L210.6,159.4329016144366L210.87,160.57567578362173L211.14000000000001,160.67264575366227L211.41,160.39153572725684L211.68,160.4776956052031L211.95000000000002,159.67677830639158L212.22,160.82392820005225L212.49,161.0268017276204L212.76000000000002,161.29441616574385L213.03,160.97717762344755L213.3,161.77659141751334L213.57000000000002,161.5747181553078L213.84,159.88276513805582L214.11,158.4041704183256L214.38000000000002,159.92899920734382L214.65,162.4379619644142L214.92000000000002,162.61598858496887L215.19,160.73369019828047L215.46,162.14763796881917L215.73000000000002,163.30344086963584L216,163.0591146590033L216.27,163.20577987576837L216.54000000000002,161.57562877756544L216.81,161.50210690630786L217.08,163.45434150149413L217.35000000000002,161.27447762116785L217.62,162.55885797947641L217.89000000000001,163.66988595521448L218.16000000000003,163.44843814385533L218.43,162.74639576338288L218.70000000000002,163.6465935751054L218.97000000000003,162.86775179292283L219.24,162.26603944173766L219.51,162.42638093692847L219.77999999999997,162.02041137464516L220.04999999999998,161.60991839660807L220.32,161.7783472764111L220.58999999999997,162.99079338819482L220.85999999999999,164.26256307176172L221.13,164.67321458033575L221.39999999999998,164.6980286457947L221.67,166.7982970991022L221.94,165.95365952258032L222.20999999999998,164.61191855373812L222.48,165.79374315487047L222.75,167.03501070348443L223.01999999999998,166.65250796233428L223.29,167.39381275984533L223.56,165.48922769569091L223.82999999999998,166.63374453212458L224.1,165.57969768643758L224.36999999999998,165.691128560903L224.64,166.3052431082739L224.91,167.44838677382552L225.17999999999998,167.906554042465L225.45,167.46952242622763L225.72,166.11989619162674L225.98999999999998,166.0532837906599L226.26,166.60418682361362L226.53,166.76795916864106L226.79999999999998,166.69191642885704L227.07,166.33640036946713L227.34,166.23942121217357L227.60999999999999,167.7084615144116L227.88,165.76701957258476L228.15,165.46808703600107L228.42,165.38896920865022L228.69,165.07683142593646L228.95999999999998,164.2275447585949L229.23,165.25235149167588L229.5,165.10651299865611L229.76999999999998,165.81305402121882L230.04,165.58886440054738L230.31,167.04996894318558L230.57999999999998,167.33224012535035L230.85,166.94795415792598L231.12,166.94550702463823L231.39,167.20350005442643L231.66,166.36992034637774L231.93,165.94393917708902L232.2,167.05546849885172L232.47,167.3481042757248L232.74,167.11030290616245L233.01,167.47289890970404L233.28,167.5293543770946L233.55,167.29303170025568L233.82,167.8243987402631L234.09,167.83187462382395L234.35999999999999,168.75838593136L234.63,169.73363961095052L234.9,170.07426538401506L235.17,169.76710654070175L235.44,169.99441375416635L235.71,171.46649022717546L235.98,172.43690237190884L236.25,170.93901828072407L236.52,170.18121304343305L236.79,171.79907185691692L237.06,170.85594060008583L237.33,170.43071342220819L237.6,171.18413285559961L237.87,169.96409832147688L238.14000000000001,169.86261945460993L238.41,170.7251096334741L238.68,171.48565976614867L238.95,172.49259220358795L239.22,170.68678373692674L239.49,169.57068590103532L239.76,170.1602514653143L240.03,170.02034867487768L240.3,171.34176555727376L240.57,172.340327930626L240.84,172.07344041343137L241.11,172.0079646797514L241.38,171.52984117859816L241.65,171.88417104762325L241.92000000000002,171.98370899755676L242.19,171.9098717842932L242.46,172.33107599508375L242.73000000000002,171.43055911863812L243,172.03789358708244L243.27,172.19155757619728L243.54000000000002,172.08232637535804L243.81,172.33317622462675L244.08,172.28443248194316L244.35,172.22343396661793L244.62,173.31665321122475L244.89000000000001,173.00770281258744" style="fill: none;" fill="none"></path></g></g></g></g><g opacity="0.2"><g><g><g><path stroke="rgb(255, 112, 67)" stroke-width="2px" d="M30.51,-12.633873441070294L30.78,0.5498957701027433L31.05,-4.370024625956988L31.32,-8.801990014314628L31.590000000000003,2.8881103612482586L31.86,-10.644732706993794L32.129999999999995,8.03390013724566L32.4,0.06696850731969273L32.67,6.443962349742655L32.94,2.942822116613392L33.21,11.573531466722493L33.48,11.433694220334296L33.75,8.184188499301676L34.02,8.091793383657937L34.29,-1.6256012141704324L34.56,-6.776171468943334L34.83,11.330897442251448L35.1,2.1290033005178013L35.370000000000005,13.950434967130427L35.64,22.75367014780641L35.910000000000004,11.635595268756155L36.18,15.041241317242388L36.45,13.877409032732253L36.720000000000006,6.695679283887152L36.99,14.89899734705687L37.260000000000005,17.087319201976065L37.53,10.934925439953808L37.800000000000004,15.221844508498911L38.06999999999999,14.290986384451394L38.339999999999996,14.798327057808642L38.61,14.744060381501917L38.879999999999995,24.935826833546166L39.15,18.276949587464337L39.419999999999995,22.00135466381908L39.69,16.349345154315237L39.96,25.19789597690106L40.23,19.514022103697066L40.5,27.248259808123116L40.769999999999996,26.488757121562962L41.04,30.37457753643394L41.31,26.94573792368174L41.58,27.317626203596596L41.85,24.44157478138805L42.12,33.89007569029928L42.39,34.09591651260853L42.660000000000004,25.494186754524712L42.93,28.546571905910973L43.2,33.71420352458954L43.47,34.18753686100245L43.74,35.09589376598597L44.010000000000005,33.96883819922805L44.28,37.84654828459025L44.550000000000004,31.974043312668805L44.82,33.52428664192558L45.09,41.92086792290211L45.36,33.05429964065552L45.63,43.555198225378994L45.900000000000006,39.91764950305224L46.17,42.549500881880526L46.44,39.89293937310577L46.709999999999994,39.395917940139775L46.98,43.199876777082686L47.25,42.862045287340884L47.519999999999996,41.172475728392605L47.79,35.27194726020098L48.059999999999995,48.48535543978215L48.33,55.95582610666752L48.6,49.797695770114665L48.87,45.54044863879681L49.14,55.46116194427014L49.41,59.74756999611855L49.68,54.254404257237915L49.95,48.152551694959406L50.22,52.05317510962487L50.49,57.91514654383064L50.76,53.03046981543303L51.03,57.38146378397942L51.3,59.65639472678304L51.57,52.60785900726915L51.84,53.77467496991158L52.11,53.13496448770166L52.38,53.194489690661435L52.65,58.924882567673926L52.92,58.016756444424395L53.190000000000005,52.80011667609215L53.46,60.1228375799954L53.730000000000004,54.577201965451245L54,53.73461785465479L54.27,57.64528027474881L54.540000000000006,64.00801510289311L54.81,55.72153319343925L55.08,65.78862805590033L55.349999999999994,60.410441073775296L55.62,55.84275954142213L55.89,72.09259596392512L56.16,57.463523174822335L56.43,68.34357966408133L56.699999999999996,69.29337837472558L56.97,63.524807605147366L57.239999999999995,60.92317214906216L57.51,63.36096905842424L57.78,68.9348919197917L58.05,64.88127669990062L58.32,68.46912492737174L58.589999999999996,77.96394702717662L58.86,71.46640269756317L59.13,74.195149435848L59.4,61.86194278970361L59.67,61.92178119644523L59.94,69.729638274014L60.21,71.87918879762292L60.480000000000004,77.40547171533107L60.75,71.25655616372823L61.02,70.97993128672242L61.29,71.48052983656525L61.56,70.68565160706639L61.830000000000005,77.02680834308266L62.1,75.50864367485046L62.370000000000005,71.86573751941323L62.64,71.69347543939948L62.910000000000004,73.41291474848985L63.18000000000001,78.44593467861414L63.449999999999996,79.30910781696439L63.72,77.31441183686256L63.989999999999995,72.92950943782925L64.25999999999999,77.57920090779662L64.53,74.58716517984867L64.8,78.06136988773942L65.07,80.52147020325064L65.34,79.04860469251871L65.61,81.6810165412724L65.88,78.24899543747306L66.15,87.62616830617189L66.42,73.15341717302799L66.69,76.23046300113201L66.96,77.30560916215181L67.23,80.65070797428488L67.5,84.0144012004137L67.77,79.1308454118669L68.04,82.51117140725255L68.31,75.63989254385233L68.58,79.73837832659483L68.85,80.60397467315197L69.12,82.44788775891065L69.39,82.20294591709971L69.66,81.33700339794159L69.93,82.11721050292253L70.2,82.38697786554694L70.47,84.71795580089092L70.74000000000001,86.23059819191694L71.01,85.39142635390162L71.28,81.18430831208825L71.55,87.07527582272887L71.82000000000001,85.38484907448291L72.09,82.37252103835344L72.36,86.58720542415976L72.63000000000001,87.05720890983939L72.9,91.64846314787864L73.17,81.80131976231932L73.44000000000001,90.93871040940284L73.71000000000001,87.3751766860485L73.98,91.47808029055595L74.25,90.28149348422885L74.52000000000001,88.18958894088864L74.79,90.21097318008542L75.06,96.47242779582739L75.33000000000001,89.12367800921201L75.60000000000001,96.87992240041494L75.87,86.5855569832027L76.13999999999999,89.73215053528547L76.41,93.0565778978169L76.67999999999999,95.04164698272943L76.94999999999999,88.00278761163354L77.22,97.52133077681064L77.49,91.19149883016944L77.75999999999999,91.27672322764992L78.03,90.7368588142097L78.3,89.7995223172009L78.57,87.00445879921317L78.83999999999999,97.57760855108499L79.11,92.21462019458413L79.38,89.86653144210577L79.64999999999999,91.2755528345704L79.92,98.26017849817872L80.19,96.59551688209176L80.46,95.12421739026904L80.72999999999999,96.39655005857348L81,99.76741400286555L81.27,95.5036390453577L81.53999999999999,96.30077563896775L81.81,91.07417928725481L82.08,98.3550792440772L82.35,101.48222119286656L82.62,100.55271479040384L82.89,99.44621528238058L83.16,95.98961592391133L83.42999999999999,99.17389283627271L83.7,97.51582498401403L83.97,100.64771444275975L84.24,95.3779783912003L84.51,101.02974063456058L84.78,104.36616864725947L85.05,101.75315894857049L85.32000000000001,101.14935151040554L85.59,99.53279140144586L85.86,100.2302632547915L86.13,101.9829845868051L86.4,103.01345799788832L86.67,102.26229642257094L86.94,101.89266650676727L87.21000000000001,102.03004757612943L87.48,94.14684026241302L87.75,101.34085089638829L88.02000000000001,105.53947946727276L88.29,103.35000370368361L88.56,100.18095838576555L88.83,100.35289077758789L89.10000000000001,107.74004923850298L89.37,101.25162078738212L89.64,102.23456964567303L89.91000000000001,104.80142299756407L90.18,106.0124006934464L90.45,105.24897471740842L90.72,110.93063967972994L90.99000000000001,105.42797892093658L91.26,106.36590885668993L91.53,105.74327622279525L91.80000000000001,105.06838801056146L92.07000000000001,109.40001279786229L92.34,106.20568039566278L92.61000000000001,107.6491377197206L92.88,107.37134244963526L93.14999999999999,110.52936793975532L93.41999999999999,108.31649255678057L93.69,101.01571240201592L93.96,111.8292955096811L94.22999999999999,109.20726059675216L94.5,106.16367812007665L94.77,112.98359980545938L95.03999999999999,104.09442315548658L95.30999999999999,110.84886876605451L95.58,102.55449906662106L95.85,107.68769475370645L96.11999999999999,100.3424231775105L96.39,108.50477748289704L96.66,109.01948668733239L96.92999999999999,107.83598850220442L97.2,105.50782940089702L97.47,105.67262404337525L97.74,101.83061918914318L98.00999999999999,107.30306402519345L98.28,110.39243194945156L98.55,105.94151773229241L98.82,109.73411881104111L99.09,110.93902200199663L99.36,99.69484963193536L99.63,112.538430082798L99.9,106.1993668667972L100.17,111.68767794705927L100.44,104.69501613378524L100.71,111.77964446805417L100.98,112.44022421278059L101.25,116.75722732879221L101.52,115.58039708733558L101.79,107.37061713561415L102.06,113.18539370521903L102.33,107.89696433320641L102.6,113.80880934856832L102.87,112.89116347879171L103.14,118.569918942824L103.41,115.07208383381366L103.68,108.12779552042484L103.95,108.51615172550082L104.22,115.19663179032504L104.49000000000001,116.08103684820234L104.76,113.87515909709036L105.03,112.6207779508084L105.3,117.65559468157589L105.57000000000001,117.43242874480784L105.84,114.80227526016533L106.11,117.38892638795078L106.38000000000001,113.66242779158055L106.65,113.34343798197806L106.92,118.44535450190305L107.19000000000001,115.19275795407593L107.46000000000001,122.07888927049935L107.73,114.51330356039107L108,113.34747666232288L108.27000000000001,112.9016887743026L108.54,115.57799860574305L108.81,115.76956392936408L109.08000000000001,114.2464951492846L109.35000000000001,113.20894992649555L109.62,118.8526842623949L109.88999999999999,112.8683902669698L110.16,120.24330905377865L110.42999999999999,116.78055276833474L110.69999999999999,119.43715548813343L110.97,118.7678637329489L111.24,117.09241307079792L111.50999999999999,119.30281579233706L111.78,119.98058877624571L112.05,118.64022494964301L112.32,116.75506787113845L112.58999999999999,113.68160740211606L112.86,118.88627948909998L113.13,123.39072682633996L113.39999999999999,117.36884837709367L113.67,119.40633788444102L113.94,113.79259693175554L114.21,121.23895090743899L114.47999999999999,113.98310725316405L114.75,116.06357985846698L115.02,122.97736377194524L115.28999999999999,120.63626440912485L115.56,124.30634511373937L115.83,119.98503132462501L116.1,118.64695883095264L116.37,126.43157289102673L116.64,114.25126738585531L116.91,121.84040931724012L117.17999999999999,117.63986855484545L117.45,116.13771024830639L117.72,120.75308941975236L117.99,126.24274397939443L118.26,126.69675758779049L118.53,116.08277595341205L118.8,116.28256699740886L119.07000000000001,122.28687306605279L119.34,118.29454688094556L119.61,117.29794893153012L119.88,123.51721994318068L120.15,122.88678194135427L120.42,123.47538251169026L120.69,125.52689200937748L120.96000000000001,125.54847010150552L121.23,122.93949908316135L121.5,122.25802534930408L121.77000000000001,116.08907299786806L122.04,121.10592172220349L122.31,122.86223665550351L122.58,120.85253986269235L122.85000000000001,123.8688736103475L123.12,122.64147744253277L123.39,123.40608205385506L123.66000000000001,125.436714046821L123.93,124.91934261023998L124.2,123.3660661496222L124.47,127.50718061551451L124.74000000000001,124.3466577373445L125.01,126.13480406552553L125.28,126.68799612410366L125.55000000000001,124.8745544694364L125.82000000000001,130.72312407866121L126.09,130.23643012829126L126.36000000000001,126.59138924181461L126.63,127.95441088937223L126.89999999999999,128.57640063129367L127.16999999999999,123.07388823218643L127.44,128.67429329752923L127.71,123.4096014752984L127.97999999999999,126.5498238030821L128.25,129.6621545098722L128.51999999999998,130.65820023156704L128.79,128.74595926813782L129.06,127.06080753095448L129.32999999999998,128.95975381806494L129.6,131.41124927178026L129.87,130.40907134972514L130.14,127.74659193791449L130.41,128.03876985535027L130.68,126.81480244472623L130.95,129.0249743845314L131.22,134.53759996891023L131.49,135.90003641992809L131.76,129.68290013931693L132.03,129.71738552413882L132.3,131.53550875112415L132.57,130.68333071395756L132.84,130.23146832101048L133.10999999999999,132.74612378999592L133.38,128.23261826969684L133.65,132.1182738404721L133.92,132.22853805609049L134.19,133.29446118995548L134.46,130.36399473175408L134.73,134.8681865606457L135,130.98065176717938L135.27,131.84784710146488L135.54,127.83934971056878L135.81,129.0408323865384L136.08,127.56285670883953L136.35,133.07790550142528L136.62,132.10764139629902L136.89000000000001,130.96318653523923L137.16,130.8581890884787L137.43,128.78200242966415L137.7,129.28383731022478L137.97,126.22439683154225L138.24,125.53675792850554L138.51,129.7077256601304L138.78,133.4116241309792L139.05,134.387319849059L139.32,129.65624484904112L139.59,130.17842973321677L139.86,133.55591216795148L140.13,133.3059837922454L140.4,130.85387841537596L140.67000000000002,135.5817636821419L140.94,128.0174390293658L141.21,132.6579404409975L141.48000000000002,130.5170277480036L141.75,132.31404268853368L142.02,132.17117231078447L142.29000000000002,135.60353134498L142.56,133.59630721360446L142.83,136.22173791490496L143.1,135.00391094684602L143.37,132.7990057758987L143.64000000000001,137.30543948449196L143.91,132.6066904116422L144.18,136.76976211108268L144.45000000000002,135.2487209133804L144.72,137.2151378888637L144.99,136.4833290103823L145.26000000000002,136.61179201416672L145.53,139.9554814092815L145.8,136.33731835260988L146.07000000000002,137.7246462620795L146.34,134.0907241098583L146.61,133.36450344622136L146.88000000000002,134.74386938586832L147.15,136.97339402250947L147.42000000000002,136.09771745949985L147.69,141.19036974124612L147.96,132.5179383505136L148.23000000000002,138.43081364147366L148.5,133.23890872970225L148.77,131.70309750102462L149.04000000000002,136.66820990592242L149.31,138.66024365387858L149.58,135.84689068347217L149.85000000000002,134.35307348817588L150.12,134.93392638601364L150.39000000000001,134.25701059140266L150.66000000000003,136.32901845239104L150.93,139.3855082217604L151.20000000000002,137.91204927228392L151.47000000000003,138.3579525511712L151.74,134.80852948240937L152.01,136.57737256698312L152.27999999999997,136.64838740341366L152.54999999999998,136.84507937841119L152.82,139.15025921277703L153.08999999999997,139.00924333110453L153.35999999999999,139.08270610235633L153.63,140.3042255781591L153.89999999999998,138.75324869267644L154.17,142.1639472126961L154.44,140.84801328107716L154.70999999999998,135.8616689566523L154.98,139.91192135699094L155.25,140.92889403663577L155.51999999999998,136.95955536067487L155.79,137.36462675705553L156.06,137.50103524625302L156.32999999999998,143.8079950746149L156.6,137.30731046497823L156.86999999999998,138.42017295509578L157.14,140.13040572144092L157.41,136.13137038163842L157.67999999999998,139.42095794454218L157.95,138.35245500057937L158.22,137.6403862025589L158.48999999999998,140.73663636781276L158.76,140.24565647095443L159.03,141.2134973678738L159.29999999999998,141.25335667021574L159.57,138.8176780074835L159.84,140.173331123963L160.10999999999999,142.6616280220449L160.38,138.2987817630172L160.65,137.7389217607677L160.92,139.35748472549022L161.19,143.99079069234432L161.45999999999998,141.76520582959057L161.73,141.09692786559464L162,134.51551910229028L162.26999999999998,143.24187923893334L162.54,140.1430245369673L162.81,140.82390483208002L163.07999999999998,139.08398364409805L163.35,141.608142375201L163.62,138.53281092569233L163.89,143.5858676556498L164.16,142.64398970380427L164.43,139.03528869822622L164.7,141.9019357647747L164.97,140.15261022113265L165.24,140.75876668766142L165.51,143.3667156726122L165.78,144.90859316401185L166.05,141.88928398042918L166.32,144.23455389887096L166.59,143.87693287543954L166.85999999999999,144.12262475788594L167.13,144.3014146640897L167.4,144.8199729781598L167.67,143.99239792227746L167.94,139.09839101806284L168.21,144.90284010507168L168.48,136.82030331082643L168.75,142.7667078908533L169.02,143.71178381815554L169.29,146.72088091000916L169.56,143.84468937031926L169.83,144.91160981096328L170.1,147.77374839149417L170.37,144.78702888563276L170.64000000000001,149.20789202414454L170.91,143.7175451193005L171.18,145.65452093929053L171.45,144.61163476780058L171.72,143.4931098829955L171.99,147.25856113918127L172.26,148.5661045063287L172.53,148.35498867295684L172.8,143.03199149407448L173.07,145.06233500987292L173.34,146.4082788091153L173.61,145.64623752348126L173.88,142.7758732225746L174.15,146.53676653951408L174.42000000000002,148.89884231351317L174.69,149.77643931023778L174.96,144.74906529039146L175.23000000000002,147.7806553591043L175.5,147.1385134264827L175.77,148.5604915648699L176.04000000000002,148.10569494701923L176.31,148.41831353232266L176.58,148.23757846578957L176.85,146.5242054194212L177.12,148.88227548189462L177.39000000000001,146.0804039027542L177.66,150.12243058271707L177.93,150.9249246094376L178.20000000000002,153.52845577262343L178.47,149.2205685351044L178.74,147.7453292693943L179.01000000000002,148.92221720628442L179.28,146.69849508181215L179.55,149.3221042558551L179.82000000000002,149.67032916583122L180.09,146.32460394613446L180.36,146.8100121125579L180.63000000000002,152.4998450998217L180.9,151.66188486590983L181.17000000000002,149.47592852376403L181.44,149.57361513487996L181.71,147.87248176261784L181.98000000000002,148.14358436241747L182.25,150.707231496647L182.52,153.84630815796555L182.79000000000002,150.64079108387233L183.06,145.0045241855085L183.33,147.8371144618839L183.60000000000002,152.86874145939947L183.87,146.70154469758273L184.14000000000001,148.6760307915509L184.41000000000003,153.10198761262L184.68,149.71833176650108L184.95000000000002,148.87172545976938L185.22000000000003,150.20320418961347L185.49,154.19039548113943L185.76,148.74141620211304L186.02999999999997,150.68011464290322L186.29999999999998,153.87045781798662L186.57,153.30211658701302L186.83999999999997,155.32966599538923L187.10999999999999,153.08036006726326L187.38,154.33304331935943L187.64999999999998,151.64799675084652L187.92,155.06589895784856L188.19,153.18041219115258L188.45999999999998,155.08857326321305L188.73,155.10163715779782L189,151.13691411651672L189.26999999999998,149.11398858502508L189.54,154.23585124053062L189.81,147.91175586842002L190.07999999999998,150.93475755974652L190.35,152.00048288069667L190.61999999999998,156.7941326994449L190.89,154.4755427978933L191.16,156.66896657757462L191.42999999999998,150.87069090195L191.7,149.3056692995131L191.97,156.82273315005006L192.23999999999998,151.10404420383276L192.51,150.26543283574284L192.78,153.23247819878162L193.04999999999998,151.53251521959902L193.32,155.57513533830644L193.59,160.48112640827895L193.85999999999999,153.0521057892591L194.13,156.94171761833132L194.4,153.56347690075637L194.67,158.32953181788326L194.94,152.56165339350702L195.20999999999998,154.4033163573593L195.48,156.00477674715222L195.75,155.93681976869703L196.01999999999998,157.25628960616888L196.29,155.3368861667812L196.56,154.219210229069L196.82999999999998,156.07378872781993L197.1,155.79849084578456L197.37,156.54848202802242L197.64,150.364339293167L197.91,158.65861008614303L198.18,157.48793677166105L198.45,154.85967899411918L198.72,154.86961085088552L198.99,150.6832137119025L199.26,159.12587715983392L199.53,156.80365244597198L199.8,154.56535810343922L200.07,155.15624176450075L200.34,158.83593287989498L200.60999999999999,156.4554522626102L200.88,157.7571189377457L201.15,158.22807851918043L201.42,155.57066806331278L201.69,159.47264319956304L201.96,157.1203261960298L202.23,154.46090464219452L202.5,155.02955907694997L202.77,158.52157518938185L203.04,159.52031611204148L203.31,157.47966984026135L203.58,157.97960077151657L203.85,162.51967091783882L204.12,158.40987683013083L204.39000000000001,160.7168369807303L204.66,159.03912795446814L204.93,159.88456386812032L205.2,155.65636226646603L205.47,159.90469957441093L205.74,158.05236295536162L206.01,153.81058644242586L206.28,157.48890935182573L206.55,160.22002160288395L206.82,161.15657509043814L207.09,160.25586695149542L207.36,155.8956087447703L207.63,164.22180159687997L207.9,158.92874834798278L208.17000000000002,160.39558880701662L208.44,156.30789207033814L208.71,155.7137527383864L208.98000000000002,160.71822991333903L209.25,161.91025053821505L209.52,161.7665064867586L209.79000000000002,160.77215041704477L210.06,159.98680017627777L210.33,161.61934192031623L210.6,157.21652921028436L210.87,162.28983703739942L211.14000000000001,160.81810070872308L211.41,159.96987068764867L211.68,160.6069354221225L211.95000000000002,158.47540235817434L212.22,162.5446530405432L212.49,161.33111201897265L212.76000000000002,161.69583782292904L213.03,160.50131981000305L213.3,162.97571210861207L213.57000000000002,161.2719082619995L213.84,157.34483561217786L214.11,156.18627833873035L214.38000000000002,162.21624239087106L214.65,166.20140610001982L214.92000000000002,162.88302851580085L215.19,157.91024261824788L215.46,164.26855962462724L215.73000000000002,165.03714522086085L216,162.69262534305454L216.27,163.42577770091594L216.54000000000002,159.13040213026107L216.81,161.3918240994215L217.08,166.38269339427353L217.35000000000002,158.00468180067838L217.62,164.4854285169393L217.89000000000001,165.33642791882158L218.16000000000003,163.1162664268166L218.43,161.6933321926743L218.70000000000002,164.99689029268922L218.97000000000003,161.69948911964894L219.24,161.36347091495992L219.51,162.6668931797147L219.77999999999997,161.4114570312202L220.04999999999998,160.99417892955245L220.32,162.0309905961156L220.58999999999997,164.80946255587043L220.85999999999999,166.17021759711207L221.13,165.28919184319676L221.39999999999998,164.73524974398316L221.67,169.94869977906347L221.94,164.68670315779747L222.20999999999998,162.59930710047485L222.48,167.566480056569L222.75,168.89691202640535L223.01999999999998,166.07875385060908L223.29,168.50576995611192L223.56,162.6323500994593L223.82999999999998,168.35051978677512L224.1,163.99862741790713L224.36999999999998,165.85827487260104L224.64,167.22641492933036L224.91,169.1631022721529L225.17999999999998,168.5938049454242L225.45,166.8139750018716L225.72,164.0954568397254L225.98999999999998,165.9533651892096L226.26,167.43054137304426L226.53,167.01361768618227L226.79999999999998,166.57785231918098L227.07,165.8031262803823L227.34,166.09395247623326L227.60999999999999,169.91202196776868L227.88,162.85485665984453L228.15,165.01968823112549L228.42,165.27029246762396L228.69,164.60862475186588L228.95999999999998,162.95361475758256L229.23,166.7895615912974L229.5,164.88775525912644L229.76999999999998,166.8728655550629L230.04,165.25257996954025L230.31,169.2416257571429L230.57999999999998,167.7556468985975L230.85,166.37152520678939L231.12,166.94183632470668L231.39,167.5904895991087L231.66,165.11955078430475L231.93,165.30496742315592L232.2,168.72276248149575L232.47,167.78705794103445L232.74,166.75360085181893L233.01,168.01679291501642L233.28,167.61403757818044L233.55,166.93854768499733L233.82,168.62144930027426L234.09,167.84308844916524L234.35999999999999,170.1481528926641L234.63,171.1965201303363L234.9,170.5852040436119L235.17,169.3063682757318L235.44,170.33537457436324L235.71,173.67460493668915L235.98,173.89252058900894L236.25,168.6921921439469L236.52,169.04450518749655L236.79,174.22586007714273L237.06,169.44124371483923L237.33,169.7928726553917L237.6,172.31426200568677L237.87,168.13404652029277L238.14000000000001,169.71040115430952L238.41,172.01884490177036L238.68,172.6264849651605L238.95,174.00299085974694L239.22,167.97807103693486L239.49,167.8965391471982L239.76,171.04459981173278L240.03,169.81049448922278L240.3,173.32389088086785L240.57,173.83817149065436L240.84,171.67310913763941L241.11,171.9097510792315L241.38,170.81265592686833L241.65,172.4156658511609L241.92000000000002,172.133015922457L242.19,171.7991159643978L242.46,172.96288231126965L242.73000000000002,170.07978380396963L243,172.94889528974892L243.27,172.42205355986954L243.54000000000002,171.9184795740992L243.81,172.7094509985298L244.08,172.2113168679178L244.35,172.1319361936301L244.62,174.95648207813502L244.89000000000001,172.54427721463145" style="fill: none;" fill="none"></path></g></g></g></g></g></g><g transform="translate(60, 177)" clip-path="url(#clip_1)"><clipPath id="clip_1"><rect width="270" height="23"></rect></clipPath><g><g><line x1="0" y1="0" x2="0" y2="5" style="visibility: inherit;" fill="rgb(0, 0, 0)" stroke="rgb(204, 204, 204)" stroke-width="1px"></line><line x1="27" y1="0" x2="27" y2="5" style="visibility: inherit;" fill="rgb(0, 0, 0)" stroke="rgb(204, 204, 204)" stroke-width="1px"></line><line x1="54" y1="0" x2="54" y2="5" style="visibility: inherit;" fill="rgb(0, 0, 0)" stroke="rgb(204, 204, 204)" stroke-width="1px"></line><line x1="81" y1="0" x2="81" y2="5" style="visibility: inherit;" fill="rgb(0, 0, 0)" stroke="rgb(204, 204, 204)" stroke-width="1px"></line><line x1="108" y1="0" x2="108" y2="5" style="visibility: inherit;" fill="rgb(0, 0, 0)" stroke="rgb(204, 204, 204)" stroke-width="1px"></line><line x1="135" y1="0" x2="135" y2="5" style="visibility: inherit;" fill="rgb(0, 0, 0)" stroke="rgb(204, 204, 204)" stroke-width="1px"></line><line x1="162" y1="0" x2="162" y2="5" style="visibility: inherit;" fill="rgb(0, 0, 0)" stroke="rgb(204, 204, 204)" stroke-width="1px"></line><line x1="189" y1="0" x2="189" y2="5" style="visibility: inherit;" fill="rgb(0, 0, 0)" stroke="rgb(204, 204, 204)" stroke-width="1px"></line><line x1="216" y1="0" x2="216" y2="5" style="visibility: inherit;" fill="rgb(0, 0, 0)" stroke="rgb(204, 204, 204)" stroke-width="1px"></line><line x1="243" y1="0" x2="243" y2="5" style="visibility: inherit;" fill="rgb(0, 0, 0)" stroke="rgb(204, 204, 204)" stroke-width="1px"></line><line x1="270" y1="0" x2="270" y2="5" style="visibility: inherit;" fill="rgb(0, 0, 0)" stroke="rgb(204, 204, 204)" stroke-width="1px"></line></g><g transform="translate(0, 8)"><text x="0" y="0" dx="0em" dy="0.95em" style="text-anchor: middle; visibility: hidden; font-family: Roboto, sans-serif; font-size: 12px; font-weight: 200;" fill="rgb(33, 33, 33)" stroke="none" stroke-width="1px">-100</text><text x="27" y="0" dx="0em" dy="0.95em" style="text-anchor: middle; visibility: inherit; font-family: Roboto, sans-serif; font-size: 12px; font-weight: 200;" fill="rgb(33, 33, 33)" stroke="none" stroke-width="1px">0</text><text x="54" y="0" dx="0em" dy="0.95em" style="text-anchor: middle; visibility: inherit; font-family: Roboto, sans-serif; font-size: 12px; font-weight: 200;" fill="rgb(33, 33, 33)" stroke="none" stroke-width="1px">100</text><text x="81" y="0" dx="0em" dy="0.95em" style="text-anchor: middle; visibility: inherit; font-family: Roboto, sans-serif; font-size: 12px; font-weight: 200;" fill="rgb(33, 33, 33)" stroke="none" stroke-width="1px">200</text><text x="108" y="0" dx="0em" dy="0.95em" style="text-anchor: middle; visibility: inherit; font-family: Roboto, sans-serif; font-size: 12px; font-weight: 200;" fill="rgb(33, 33, 33)" stroke="none" stroke-width="1px">300</text><text x="135" y="0" dx="0em" dy="0.95em" style="text-anchor: middle; visibility: inherit; font-family: Roboto, sans-serif; font-size: 12px; font-weight: 200;" fill="rgb(33, 33, 33)" stroke="none" stroke-width="1px">400</text><text x="162" y="0" dx="0em" dy="0.95em" style="text-anchor: middle; visibility: inherit; font-family: Roboto, sans-serif; font-size: 12px; font-weight: 200;" fill="rgb(33, 33, 33)" stroke="none" stroke-width="1px">500</text><text x="189" y="0" dx="0em" dy="0.95em" style="text-anchor: middle; visibility: inherit; font-family: Roboto, sans-serif; font-size: 12px; font-weight: 200;" fill="rgb(33, 33, 33)" stroke="none" stroke-width="1px">600</text><text x="216" y="0" dx="0em" dy="0.95em" style="text-anchor: middle; visibility: inherit; font-family: Roboto, sans-serif; font-size: 12px; font-weight: 200;" fill="rgb(33, 33, 33)" stroke="none" stroke-width="1px">700</text><text x="243" y="0" dx="0em" dy="0.95em" style="text-anchor: middle; visibility: inherit; font-family: Roboto, sans-serif; font-size: 12px; font-weight: 200;" fill="rgb(33, 33, 33)" stroke="none" stroke-width="1px">800</text><text x="270" y="0" dx="0em" dy="0.95em" style="text-anchor: middle; visibility: hidden; font-family: Roboto, sans-serif; font-size: 12px; font-weight: 200;" fill="rgb(33, 33, 33)" stroke="none" stroke-width="1px">900</text></g><line x1="0" y1="0" x2="270" y2="0" fill="rgb(0, 0, 0)" stroke="rgb(204, 204, 204)" stroke-width="1px"></line></g></g></g></g></svg>