<svg viewBox="0 0 330 200" xmlns="http://www.w3.org/2000/svg"><g><g><g><g><g><line x1="60" y1="177" x2="55" y2="177" style="visibility: inherit;" fill="rgb(0, 0, 0)" stroke="rgb(204, 204, 204)" stroke-width="1px"></line><line x1="60" y1="163.3846153846154" x2="55" y2="163.3846153846154" style="visibility: inherit;" fill="rgb(0, 0, 0)" stroke="rgb(204, 204, 204)" stroke-width="1px"></line><line x1="60" y1="149.76923076923077" x2="55" y2="149.76923076923077" style="visibility: inherit;" fill="rgb(0, 0, 0)" stroke="rgb(204, 204, 204)" stroke-width="1px"></line><line x1="60" y1="136.15384615384616" x2="55" y2="136.15384615384616" style="visibility: inherit;" fill="rgb(0, 0, 0)" stroke="rgb(204, 204, 204)" stroke-width="1px"></line><line x1="60" y1="122.53846153846153" x2="55" y2="122.53846153846153" style="visibility: inherit;" fill="rgb(0, 0, 0)" stroke="rgb(204, 204, 204)" stroke-width="1px"></line><line x1="60" y1="108.92307692307693" x2="55" y2="108.92307692307693" style="visibility: inherit;" fill="rgb(0, 0, 0)" stroke="rgb(204, 204, 204)" stroke-width="1px"></line><line x1="60" y1="95.30769230769232" x2="55" y2="95.30769230769232" style="visibility: inherit;" fill="rgb(0, 0, 0)" stroke="rgb(204, 204, 204)" stroke-width="1px"></line><line x1="60" y1="81.6923076923077" x2="55" y2="81.6923076923077" style="visibility: inherit;" fill="rgb(0, 0, 0)" stroke="rgb(204, 204, 204)" stroke-width="1px"></line><line x1="60" y1="68.0769230769231" x2="55" y2="68.0769230769231" style="visibility: inherit;" fill="rgb(0, 0, 0)" stroke="rgb(204, 204, 204)" stroke-width="1px"></line><line x1="60" y1="54.46153846153847" x2="55" y2="54.46153846153847" style="visibility: inherit;" fill="rgb(0, 0, 0)" stroke="rgb(204, 204, 204)" stroke-width="1px"></line><line x1="60" y1="40.846153846153875" x2="55" y2="40.846153846153875" style="visibility: inherit;" fill="rgb(0, 0, 0)" stroke="rgb(204, 204, 204)" stroke-width="1px"></line><line x1="60" y1="27.23076923076925" x2="55" y2="27.23076923076925" style="visibility: inherit;" fill="rgb(0, 0, 0)" stroke="rgb(204, 204, 204)" stroke-width="1px"></line><line x1="60" y1="13.615384615384626" x2="55" y2="13.615384615384626" style="visibility: inherit;" fill="rgb(0, 0, 0)" stroke="rgb(204, 204, 204)" stroke-width="1px"></line><line x1="60" y1="0" x2="55" y2="0" style="visibility: inherit;" fill="rgb(0, 0, 0)" stroke="rgb(204, 204, 204)" stroke-width="1px"></line></g><g transform="translate(50, 0)"><text x="0" y="177" dx="0em" dy="0.3em" style="text-anchor: end; visibility: hidden; font-family: Roboto, sans-serif; font-size: 12px; font-weight: 200;" fill="rgb(33, 33, 33)" stroke="none" stroke-width="1px">6e-3</text><text x="0" y="163.3846153846154" dx="0em" dy="0.3em" style="text-anchor: end; visibility: inherit; font-family: Roboto, sans-serif; font-size: 12px; font-weight: 200;" fill="rgb(33, 33, 33)" stroke="none" stroke-width="1px">8e-3</text><text x="0" y="149.76923076923077" dx="0em" dy="0.3em" style="text-anchor: end; visibility: hidden; font-family: Roboto, sans-serif; font-size: 12px; font-weight: 200;" fill="rgb(33, 33, 33)" stroke="none" stroke-width="1px">0.01</text><text x="0" y="136.15384615384616" dx="0em" dy="0.3em" style="text-anchor: end; visibility: inherit; font-family: Roboto, sans-serif; font-size: 12px; font-weight: 200;" fill="rgb(33, 33, 33)" stroke="none" stroke-width="1px">0.012</text><text x="0" y="122.53846153846153" dx="0em" dy="0.3em" style="text-anchor: end; visibility: hidden; font-family: Roboto, sans-serif; font-size: 12px; font-weight: 200;" fill="rgb(33, 33, 33)" stroke="none" stroke-width="1px">0.014</text><text x="0" y="108.92307692307693" dx="0em" dy="0.3em" style="text-anchor: end; visibility: inherit; font-family: Roboto, sans-serif; font-size: 12px; font-weight: 200;" fill="rgb(33, 33, 33)" stroke="none" stroke-width="1px">0.016</text><text x="0" y="95.30769230769232" dx="0em" dy="0.3em" style="text-anchor: end; visibility: hidden; font-family: Roboto, sans-serif; font-size: 12px; font-weight: 200;" fill="rgb(33, 33, 33)" stroke="none" stroke-width="1px">0.018</text><text x="0" y="81.6923076923077" dx="0em" dy="0.3em" style="text-anchor: end; visibility: inherit; font-family: Roboto, sans-serif; font-size: 12px; font-weight: 200;" fill="rgb(33, 33, 33)" stroke="none" stroke-width="1px">0.02</text><text x="0" y="68.0769230769231" dx="0em" dy="0.3em" style="text-anchor: end; visibility: hidden; font-family: Roboto, sans-serif; font-size: 12px; font-weight: 200;" fill="rgb(33, 33, 33)" stroke="none" stroke-width="1px">0.022</text><text x="0" y="54.46153846153847" dx="0em" dy="0.3em" style="text-anchor: end; visibility: inherit; font-family: Roboto, sans-serif; font-size: 12px; font-weight: 200;" fill="rgb(33, 33, 33)" stroke="none" stroke-width="1px">0.024</text><text x="0" y="40.846153846153875" dx="0em" dy="0.3em" style="text-anchor: end; visibility: hidden; font-family: Roboto, sans-serif; font-size: 12px; font-weight: 200;" fill="rgb(33, 33, 33)" stroke="none" stroke-width="1px">0.026</text><text x="0" y="27.23076923076925" dx="0em" dy="0.3em" style="text-anchor: end; visibility: inherit; font-family: Roboto, sans-serif; font-size: 12px; font-weight: 200;" fill="rgb(33, 33, 33)" stroke="none" stroke-width="1px">0.028</text><text x="0" y="13.615384615384626" dx="0em" dy="0.3em" style="text-anchor: end; visibility: hidden; font-family: Roboto, sans-serif; font-size: 12px; font-weight: 200;" fill="rgb(33, 33, 33)" stroke="none" stroke-width="1px">0.03</text><text x="0" y="0" dx="0em" dy="0.3em" style="text-anchor: end; visibility: hidden; font-family: Roboto, sans-serif; font-size: 12px; font-weight: 200;" fill="rgb(33, 33, 33)" stroke="none" stroke-width="1px">0.032</text></g><line x1="60" y1="0" x2="60" y2="177" fill="rgb(0, 0, 0)" stroke="rgb(204, 204, 204)" stroke-width="1px"></line></g></g><g transform="translate(60, 0)" clip-path="url(#clip_0)"><clipPath id="clip_0"><rect width="270" height="177"></rect></clipPath><g><g><g><line x1="0" y1="0" x2="0" y2="177" fill="rgb(0, 0, 0)" stroke="rgb(66, 66, 66)" stroke-width="1px" opacity="0.25"></line><line x1="27" y1="0" x2="27" y2="177" fill="rgb(0, 0, 0)" stroke="rgb(66, 66, 66)" stroke-width="1px" opacity="0.25"></line><line x1="54" y1="0" x2="54" y2="177" fill="rgb(0, 0, 0)" stroke="rgb(66, 66, 66)" stroke-width="1px" opacity="0.25"></line><line x1="81" y1="0" x2="81" y2="177" fill="rgb(0, 0, 0)" stroke="rgb(66, 66, 66)" stroke-width="1px" opacity="0.25"></line><line x1="108" y1="0" x2="108" y2="177" fill="rgb(0, 0, 0)" stroke="rgb(66, 66, 66)" stroke-width="1px" opacity="0.25"></line><line x1="135" y1="0" x2="135" y2="177" fill="rgb(0, 0, 0)" stroke="rgb(66, 66, 66)" stroke-width="1px" opacity="0.25"></line><line x1="162" y1="0" x2="162" y2="177" fill="rgb(0, 0, 0)" stroke="rgb(66, 66, 66)" stroke-width="1px" opacity="0.25"></line><line x1="189" y1="0" x2="189" y2="177" fill="rgb(0, 0, 0)" stroke="rgb(66, 66, 66)" stroke-width="1px" opacity="0.25"></line><line x1="216" y1="0" x2="216" y2="177" fill="rgb(0, 0, 0)" stroke="rgb(66, 66, 66)" stroke-width="1px" opacity="0.25"></line><line x1="243" y1="0" x2="243" y2="177" fill="rgb(0, 0, 0)" stroke="rgb(66, 66, 66)" stroke-width="1px" opacity="0.25"></line><line x1="270" y1="0" x2="270" y2="177" fill="rgb(0, 0, 0)" stroke="rgb(66, 66, 66)" stroke-width="1px" opacity="0.25"></line></g><g><line x1="0" y1="177" x2="270" y2="177" fill="rgb(0, 0, 0)" stroke="rgb(66, 66, 66)" stroke-width="1px" opacity="0.25"></line><line x1="0" y1="163.3846153846154" x2="270" y2="163.3846153846154" fill="rgb(0, 0, 0)" stroke="rgb(66, 66, 66)" stroke-width="1px" opacity="0.25"></line><line x1="0" y1="149.76923076923077" x2="270" y2="149.76923076923077" fill="rgb(0, 0, 0)" stroke="rgb(66, 66, 66)" stroke-width="1px" opacity="0.25"></line><line x1="0" y1="136.15384615384616" x2="270" y2="136.15384615384616" fill="rgb(0, 0, 0)" stroke="rgb(66, 66, 66)" stroke-width="1px" opacity="0.25"></line><line x1="0" y1="122.53846153846153" x2="270" y2="122.53846153846153" fill="rgb(0, 0, 0)" stroke="rgb(66, 66, 66)" stroke-width="1px" opacity="0.25"></line><line x1="0" y1="108.92307692307693" x2="270" y2="108.92307692307693" fill="rgb(0, 0, 0)" stroke="rgb(66, 66, 66)" stroke-width="1px" opacity="0.25"></line><line x1="0" y1="95.30769230769232" x2="270" y2="95.30769230769232" fill="rgb(0, 0, 0)" stroke="rgb(66, 66, 66)" stroke-width="1px" opacity="0.25"></line><line x1="0" y1="81.6923076923077" x2="270" y2="81.6923076923077" fill="rgb(0, 0, 0)" stroke="rgb(66, 66, 66)" stroke-width="1px" opacity="0.25"></line><line x1="0" y1="68.0769230769231" x2="270" y2="68.0769230769231" fill="rgb(0, 0, 0)" stroke="rgb(66, 66, 66)" stroke-width="1px" opacity="0.25"></line><line x1="0" y1="54.46153846153847" x2="270" y2="54.46153846153847" fill="rgb(0, 0, 0)" stroke="rgb(66, 66, 66)" stroke-width="1px" opacity="0.25"></line><line x1="0" y1="40.846153846153875" x2="270" y2="40.846153846153875" fill="rgb(0, 0, 0)" stroke="rgb(66, 66, 66)" stroke-width="1px" opacity="0.25"></line><line x1="0" y1="27.23076923076925" x2="270" y2="27.23076923076925" fill="rgb(0, 0, 0)" stroke="rgb(66, 66, 66)" stroke-width="1px" opacity="0.25"></line><line x1="0" y1="13.615384615384626" x2="270" y2="13.615384615384626" fill="rgb(0, 0, 0)" stroke="rgb(66, 66, 66)" stroke-width="1px" opacity="0.25"></line><line x1="0" y1="0" x2="270" y2="0" fill="rgb(0, 0, 0)" stroke="rgb(66, 66, 66)" stroke-width="1px" opacity="0.25"></line></g></g></g><g><g><line x1="0" y1="217.84615384615387" x2="270" y2="217.84615384615387" fill="rgb(0, 0, 0)" stroke="rgb(153, 153, 153)" stroke-width="1.5px"></line></g></g><g><g><line x1="27" y1="0" x2="27" y2="177" fill="rgb(0, 0, 0)" stroke="rgb(153, 153, 153)" stroke-width="1.5px"></line></g></g><g><g><g><g><g><path stroke="rgb(255, 112, 67)" stroke-width="2px" d="M33.21,-1.5820037956605542L33.48,1.2070941603579817L33.75,2.140584275785507L34.02,0.7033532083367424L34.29,1.4478254427185568L34.56,2.916055336435419L34.83,2.9749837131249084L35.1,3.2726609791892822L35.370000000000005,6.365340892377711L35.64,8.293388790065551L35.910000000000004,8.91332277071759L36.18,11.14360871153665L36.45,11.144012071580972L36.720000000000006,9.770899876825972L36.99,10.87434409043937L37.260000000000005,17.16518219266078L37.53,14.430625712608377L37.800000000000004,13.220246503829207L38.06999999999999,12.890015074269776L38.339999999999996,14.03214494126259L38.61,16.386994295612507L38.879999999999995,16.718668659540068L39.15,17.940883404558434L39.419999999999995,16.94042262981836L39.69,19.400195298872077L39.96,20.024048243249627L40.23,21.352553717720575L40.5,22.345877269674737L40.769999999999996,23.78903817750372L41.04,24.773901438038788L41.31,26.763696534781356L41.58,27.4934334848268L41.85,27.216389924843636L42.12,29.038665435052085L42.39,29.29691533594733L42.660000000000004,27.93903268073247L42.93,31.04184584664635L43.2,31.84280510339156L43.47,34.0336508307133L43.74,35.18364893171677L44.010000000000005,32.1673083608221L44.28,33.14353661589127L44.550000000000004,34.78028401827811L44.82,37.9228146829275L45.09,38.12573135589121L45.36,39.93919769595644L45.63,41.51580438990666L45.900000000000006,40.945588207350575L46.17,42.77448059890745L46.44,42.535914410106486L46.709999999999994,42.76724976101188L46.98,42.06436716312754L47.25,44.16867809425391L47.519999999999996,43.90030935090219L47.79,41.90302124911028L48.059999999999995,44.11417207686499L48.33,45.875437258935506L48.6,46.462781249116695L48.87,48.42563837639188L49.14,50.17510805855901L49.41,51.34914318153455L49.68,51.443661389708325L49.95,50.147859478156256L50.22,51.56801387755165L50.49,52.635261030905596L50.76,54.607772789775L51.03,55.40753800666895L51.3,55.63622545620818L51.57,54.77683617242174L51.84,55.01081717903061L52.11,57.11889142400045L52.38,57.206693334248534L52.65,57.30026596038478L52.92,56.26169764891781L53.190000000000005,57.337637725308156L53.46,59.96993831748458L53.730000000000004,59.66862506518504L54,59.62494175229928L54.27,60.145273631915686L54.540000000000006,61.859479401862046L54.81,61.94348170031129L55.08,63.68373794541784L55.349999999999994,62.199416582134305L55.62,63.837937962390384L55.89,66.40633363439056L56.16,64.03333818975521L56.43,63.77456769316224L56.699999999999996,64.08710757819266L56.97,65.0711226747847L57.239999999999995,64.21664026504945L57.51,66.02144070342892L57.78,67.6542205812309L58.05,67.06094614667643L58.32,68.7464564163127L58.589999999999996,69.80496378285292L58.86,70.15019620063387L59.13,69.38603366238897L59.4,68.1283415306987L59.67,71.04029007091874L59.94,72.57445526276724L60.21,72.40037943813026L60.480000000000004,72.61180566347868L60.75,74.2095525843657L61.02,73.03096913936433L61.29,74.24823947840245L61.56,73.59498149647762L61.830000000000005,73.49814835989834L62.1,75.20035517442992L62.370000000000005,73.09179202615023L62.64,74.39926688817117L62.910000000000004,75.24328334850102L63.18000000000001,76.69701420178158L63.449999999999996,76.89672938027377L63.72,77.97272525223363L63.989999999999995,77.1397929679428L64.25999999999999,79.43001738114528L64.53,79.92250493971376L64.8,80.28454884038626L65.07,77.70461433869205L65.34,79.34748754095153L65.61,78.60833356609002L65.88,79.81142574011855L66.15,81.34134172956504L66.42,81.21942940688348L66.69,81.98307122009113L66.96,78.9619249487485L67.23,80.27119161784353L67.5,81.582441976573L67.77,81.0991166195859L68.04,80.8048202425272L68.31,81.1218414322248L68.58,81.90731885595616L68.85,81.49861680605112L69.12,83.30281345582709L69.39,84.64150424254728L69.66,85.22067276394657L69.93,83.17006254944975L70.2,82.0503245614121L70.47,84.25017750257686L70.74000000000001,86.05213905225702L71.01,85.50855170926526L71.28,88.14044291085187L71.55,87.78838086539983L71.82000000000001,87.0682978113744L72.09,87.85467916403046L72.36,88.08997445072569L72.63000000000001,88.98175019207177L72.9,88.47659867170846L73.17,86.99731216780229L73.44000000000001,88.02482288749148L73.71000000000001,88.35184787086557L73.98,89.71004635546521L74.25,88.62882214275733L74.52000000000001,87.50296793664445L74.79,88.61088593198902L75.06,89.81684271996873L75.33000000000001,91.48565819817028L75.60000000000001,92.28338785146022L75.87,91.11324992604736L76.13999999999999,91.28319750921537L76.41,90.21833361206419L76.67999999999999,91.808503073561L76.94999999999999,92.38185039425822L77.22,93.08548266587079L77.49,92.76266308663737L77.75999999999999,93.54645624963132L78.03,94.51844149286927L78.3,94.06679719935013L78.57,93.6524672697379L78.83999999999999,91.71400937380754L79.11,91.6875372122117L79.38,91.43551094405949L79.64999999999999,92.2242260726371L79.92,92.13927275321585L80.19,93.39121834977873L80.46,92.71435398692228L80.72999999999999,92.56140039533213L81,93.06927526717361L81.27,94.24894192903074L81.53999999999999,92.8692678848848L81.81,94.88259963310355L82.08,94.46155860699862L82.35,95.76430650803192L82.62,96.10568963783783L82.89,97.605986150811L83.16,96.5128540369285L83.42999999999999,97.56869556991582L83.7,96.018893699393L83.97,97.58873887713551L84.24,96.32928749695436L84.51,97.87919720116724L84.78,98.5510377468261L85.05,99.48943396605301L85.32000000000001,99.29018694990607L85.59,100.48946251563775L85.86,100.43629959991488L86.13,101.84078229070712L86.4,101.62211939087884L86.67,102.0942358248912L86.94,101.87789112790402L87.21000000000001,100.6403877799473L87.48,98.67242969156186L87.75,100.28443843587154L88.02000000000001,101.55209613948182L88.29,100.42662577258555L88.56,101.8102108029453L88.83,102.18214088423007L89.10000000000001,102.65554748666212L89.37,103.40265626540321L89.64,102.42870246827466L89.91000000000001,104.4755970063018L90.18,104.5025782052769L90.45,103.8805007303367L90.72,103.96002264683032L90.99000000000001,103.5029730314198L91.26,104.24630304040534L91.53,103.81795274578897L91.80000000000001,103.2223984455713L92.07000000000001,104.9030105960985L92.34,103.21766812665675L92.61000000000001,104.68259848692067L92.88,104.6265863528594L93.14999999999999,104.77292795942233L93.41999999999999,105.18177313990687L93.69,104.30862573914108L93.96,104.65844143868452L94.22999999999999,103.1140092706371L94.5,103.67989913359953L94.77,106.26483280845045L95.03999999999999,106.00291880279241L95.30999999999999,106.39371724565349L95.58,105.01911505222951L95.85,105.76329926210563L96.11999999999999,106.40432582096551L96.39,106.18314731274742L96.66,106.48974718681256L96.92999999999999,106.82878229224072L97.2,106.28783335692336L97.47,106.75323747936876L97.74,105.13853795206172L98.00999999999999,106.23284099990731L98.28,107.13205304899118L98.55,106.50821209346236L98.82,108.0525913516534L99.09,107.49380115196378L99.36,107.13662051986205L99.63,107.55709378434929L99.9,107.74447989059334L100.17,109.32153105619183L100.44,108.16387685054735L100.71,108.2859879149311L100.98,108.55678850147848L101.25,110.68920905442808L101.52,111.09473914477599L101.79,110.44524382419488L102.06,110.93594851426083L102.33,109.6281450474782L102.6,110.58219283979125L102.87,111.16833654394188L103.14,111.84959176288464L103.41,111.69914553641512L103.68,111.93423186026172L103.95,112.1128300674457L104.22,113.49388387487522L104.49000000000001,111.53880659544491L104.76,111.63622128158914L105.03,111.78992969209021L105.3,113.40600145579889L105.57000000000001,115.3007571873205L105.84,113.18770674330813L106.11,114.02876249816175L106.38000000000001,112.37176996343872L106.65,111.85087988232468L106.92,112.45750890312912L107.19000000000001,114.39756071466583L107.46000000000001,115.1560601097707L107.73,115.4247692597863L108,114.91404456656001L108.27000000000001,114.91525448234754L108.54,115.53055979762371L108.81,115.68648291214186L109.08000000000001,115.26925593802123L109.35000000000001,114.60421512182137L109.62,115.79356747282125L109.88999999999999,114.309647315678L110.16,114.44825206679481L110.42999999999999,114.30255298317437L110.69999999999999,113.96901876204863L110.97,114.4708398937755L111.24,115.51366252979156L111.50999999999999,115.32784638067702L111.78,115.55635144269837L112.05,116.37682455488483L112.32,115.72948032306235L112.58999999999999,115.23116081307751L112.86,115.82283443650627L113.13,115.53784535732787L113.39999999999999,116.87507140695591L113.67,117.96999516236048L113.94,116.78446413331969L114.21,117.43512293950808L114.47999999999999,115.53236186358984L114.75,116.32628683738871L115.02,116.62080103166218L115.28999999999999,117.8449111799071L115.56,117.25275256361279L115.83,117.09085755904557L116.1,117.39305918224986L116.37,118.63209849218148L116.64,117.72958421526278L116.91,118.25276308627451L117.17999999999999,117.67538120796122L117.45,118.79865892522514L117.72,118.16083428289281L117.99,119.74853618985655L118.26,120.16720701953591L118.53,121.04669123159493L118.8,119.55909421511173L119.07000000000001,119.39735328306595L119.34,118.35696682961992L119.61,119.97568487775729L119.88,118.93187669709613L120.15,120.48931449334839L120.42,121.41079506454709L120.69,120.551474183597L120.96000000000001,121.12006888068052L121.23,120.75951988838834L121.5,120.54470198656752L121.77000000000001,121.37240914105143L122.04,120.79453904091577L122.31,121.40628141878678L122.58,121.48191545311866L122.85000000000001,122.13801535161886L123.12,121.05994974031046L123.39,121.4960168873585L123.66000000000001,119.99352356002476L123.93,122.46310707327252L124.2,121.25301142777609L124.47,122.57953692683482L124.74000000000001,122.80816282743021L125.01,122.44388262864693L125.28,124.05449814116848L125.55000000000001,123.47857848105825L125.82000000000001,124.8620079311609L126.09,123.48421986521407L126.36000000000001,122.68880146619202L126.63,122.45025482161446L126.89999999999999,124.76705469809443L127.16999999999999,123.60807682623869L127.44,124.52785537742893L127.71,124.0813657990296L127.97999999999999,124.02997321516546L128.25,124.1461633818395L128.51999999999998,124.57296529802731L128.79,124.95337440078518L129.06,125.32078378409871L129.32999999999998,126.21119132392201L129.6,125.24646283641857L129.87,126.18347371858826L130.14,125.17504316793136L130.41,126.54760930948133L130.68,126.17855014716879L130.95,127.57956856917824L131.22,127.33619781783419L131.49,127.21931219495974L131.76,125.97436484782483L132.03,127.12182790047923L132.3,127.07671907341982L132.57,126.18711845868121L132.84,126.30861590633612L133.10999999999999,126.47351259671159L133.38,126.8582395516325L133.65,127.04894252743793L133.92,127.14467860065704L134.19,127.91229143346112L134.46,127.99909670266366L134.73,128.27217746707896L135,128.17729170523256L135.27,126.9919415474984L135.54,126.90565034755693L135.81,126.82700603999183L136.08,126.42420001975266L136.35,127.75119311086046L136.62,127.24541986487564L136.89000000000001,127.4148555869228L137.16,128.7429291955176L137.43,128.81086066615148L137.7,128.41469393270307L137.97,126.72951817673547L138.24,125.96753019271324L138.51,126.60738246741865L138.78,127.7973358111146L139.05,128.40639342663528L139.32,128.90625962402817L139.59,129.0163651703519L139.86,129.03206735887616L140.13,128.87675362699324L140.4,128.80685659055536L140.67000000000002,129.6919584498773L140.94,128.32637158546362L141.21,128.32839448265187L141.48000000000002,128.40872070658912L141.75,127.78705090151074L142.02,129.11504227324446L142.29000000000002,129.58127142706908L142.56,129.15994473276328L142.83,128.89537377562033L143.1,129.23041788593017L143.37,129.38788239777827L143.64000000000001,129.3742538108595L143.91,130.4900166720573L144.18,131.4774434330166L144.45000000000002,130.71347097184707L144.72,131.77759263522069L144.99,132.45340408895396L145.26000000000002,132.54120595601054L145.53,132.27485288553927L145.8,131.78984929156096L146.07000000000002,131.35826301822902L146.34,131.15373009431727L146.61,131.31601563719545L146.88000000000002,131.72629656145628L147.15,132.53493345906898L147.42000000000002,131.58449090418785L147.69,132.69174229074827L147.96,131.1261937827335L148.23000000000002,130.73060165958253L148.5,131.83295210394326L148.77,133.12883461462067L149.04000000000002,133.2832356868138L149.31,133.06104693189656L149.58,132.9066361707587L149.85000000000002,132.8877891476925L150.12,132.62485022585065L150.39000000000001,132.2189990447696L150.66000000000003,132.8125108607346L150.93,132.8579400872292L151.20000000000002,133.59701218082964L151.47000000000003,133.13876584166195L151.74,133.11992236131468L152.01,133.2392488787965L152.27999999999997,132.20110672879747L152.54999999999998,133.52030805977074L152.82,133.56264794824884L153.08999999999997,133.41339322177663L153.35999999999999,134.1679410623703L153.63,135.33884223439836L153.89999999999998,135.0177822572915L154.17,134.70416845721954L154.44,134.25003056891074L154.70999999999998,134.986870481498L154.98,135.48953307768704L155.25,136.1010831844637L155.51999999999998,135.56937200094086L155.79,135.55275812455906L156.06,134.8492475750197L156.32999999999998,136.22217678864615L156.6,136.25412218750333L156.86999999999998,136.0977228567007L157.14,136.360856951567L157.41,135.2330802651232L157.67999999999998,135.54495893458133L157.95,136.54533307014285L158.22,136.6589834300871L158.48999999999998,135.8743844177014L158.76,133.69128540957857L159.03,133.02322747086723L159.29999999999998,134.53040478599902L159.57,134.6186999325096L159.84,135.3592671042397L160.10999999999999,137.37164755871336L160.38,136.44904411675185L160.65,135.9401294408814L160.92,135.51792899607L161.19,137.09331811719164L161.45999999999998,137.3940086395875L161.73,136.86764248039796L162,136.25974694398468L162.26999999999998,137.90300598469904L162.54,137.0643756595749L162.81,135.83651238701654L163.07999999999998,135.6356594655536L163.35,136.8037847300772L163.62,136.4360035130164L163.89,136.60721484740952L164.16,137.22081886127128L164.43,137.24637183713406L164.7,137.9866068015545L164.97,138.17503401075714L165.24,137.49126187432446L165.51,137.78283627828375L165.78,138.64043836192693L166.05,139.4238298994547L166.32,139.7814639732663L166.59,140.08139054605832L166.85999999999999,139.89669359758867L167.13,139.7678744532557L167.4,138.21502796110096L167.67,139.61253416932803L167.94,139.93463713580064L168.21,139.5429864149818L168.48,138.9043359051754L168.75,139.79386882129967L169.02,139.8992602087523L169.29,140.55013634572603L169.56,141.0409151347932L169.83,140.9857785139952L170.1,141.2027523543888L170.37,141.97019857199788L170.64000000000001,141.94610327913824L170.91,140.7791373402559L171.18,140.4060388955652L171.45,141.7930895893222L171.72,140.81092922932734L171.99,140.41829962769782L172.26,141.01653119949893L172.53,141.87398912075352L172.8,142.5980745534812L173.07,142.18851136278323L173.34,141.01841905790832L173.61,140.91073315465334L173.88,140.43829224779535L174.15,141.89813770586082L174.42000000000002,142.37311624324772L174.69,141.9634249857407L174.96,140.80869792845357L175.23000000000002,141.5782038113496L175.5,141.77574340968533L175.77,142.3011480460257L176.04000000000002,143.0402633273417L176.31,143.77501962143452L176.58,143.2149704815138L176.85,144.19424978964813L177.12,143.83796065951893L177.39000000000001,142.8510480840718L177.66,143.93351113008214L177.93,144.55978144507583L178.20000000000002,143.3631541345728L178.47,143.44075846722384L178.74,143.55509988684312L179.01000000000002,144.05051907121913L179.28,143.79374479255176L179.55,144.97862005257343L179.82000000000002,145.17941867001173L180.09,144.37233279424683L180.36,144.4800161279674L180.63000000000002,144.64582265052275L180.9,145.6376051180546L181.17000000000002,145.3483316742402L181.44,145.43694072988987L181.71,144.50500799158706L181.98000000000002,144.42018342990758L182.25,145.25104736902534L182.52,145.68131266868426L182.79000000000002,146.38983099007703L183.06,145.05903535575743L183.33,145.64886480495744L183.60000000000002,145.9609427954281L183.87,145.40475539838727L184.14000000000001,144.86568018573107L184.41000000000003,144.64839972789864L184.68,145.1728758914265L184.95000000000002,144.78655319632892L185.22000000000003,145.24009003095142L185.49,145.56015133081954L185.76,144.86569206891062L186.02999999999997,145.3165706989668L186.29999999999998,145.1398758453476L186.57,145.4928178644433L186.83999999999997,146.4405308092159L187.10999999999999,146.77230804330472L187.38,146.41916187951782L187.64999999999998,146.25899718635247L187.92,146.40403992184244L188.19,146.06582358959875L188.45999999999998,147.50782230005188L188.73,147.40254122182583L189,147.0832099222876L189.26999999999998,146.34408274670557L189.54,147.21083549923233L189.81,146.35775612201365L190.07999999999998,146.9254496539001L190.35,148.5232378566574L190.61999999999998,148.2409162406327L190.89,148.9138968885845L191.16,148.84302050786192L191.42999999999998,148.64153424990667L191.7,148.51655943368598L191.97,148.0280314290851L192.23999999999998,148.5136711032633L192.51,147.74543959662904L192.78,148.1541801006531L193.04999999999998,148.5987361311553L193.32,148.70143212178715L193.59,148.9652271954563L193.85999999999999,149.65167233049183L194.13,149.84894536772188L194.4,149.71811563861124L194.67,148.9139233705827L194.94,149.00742653748884L195.20999999999998,149.93099132656565L195.48,149.2761002005218L195.75,149.32531796658964L196.01999999999998,150.53480266330064L196.29,150.69261317980587L196.56,148.78854454075827L196.82999999999998,149.3668779035953L197.1,149.44136527046385L197.37,149.93562811658597L197.64,148.9381393844557L197.91,149.7746114622434L198.18,149.3819618834048L198.45,149.54702444268585L198.72,150.23017561910848L198.99,149.88399493165562L199.26,149.81795607109746L199.53,151.3636536395543L199.8,150.86458492220783L200.07,150.91934039615091L200.34,151.91695516292518L200.60999999999999,151.5142838102329L200.88,150.69190228062286L201.15,150.3975796698407L201.42,151.20792038468392L201.69,152.19022438765137L201.96,151.5220086472206L202.23,151.2488815623322L202.5,151.36666300545008L202.77,152.24139064891904L203.04,151.9540657360824L203.31,151.84666247516017L203.58,152.24547807667753L203.85,153.38843262600133L204.12,152.94594642693903L204.39000000000001,152.2788767379185L204.66,152.62964179997985L204.93,153.14750971508005L205.2,153.27420612388195L205.47,153.55442522673582L205.74,154.47945230223308L206.01,154.29450622647013L206.28,153.99456891788293L206.55,152.84653041596698L206.82,152.8737494895602L207.09,152.64562982009778L207.36,152.28957370057935L207.63,152.1693990229451L207.9,152.3943534210805L208.17000000000002,153.57626105604857L208.44,152.91737463100955L208.71,152.9374422889786L208.98000000000002,153.15520324307624L209.25,154.22979514849794L209.52,153.0616304320482L209.79000000000002,152.9396564581121L210.06,154.4349484280239L210.33,154.11669005137853L210.6,152.99628822040935L210.87,153.85461694227774L211.14000000000001,155.12486895641572L211.41,155.10065042680114L211.68,153.81593215003514L211.95000000000002,154.58777309711334L212.22,156.50600721942564L212.49,155.62600756819126L212.76000000000002,155.3843698683867L213.03,155.67496621487396L213.3,155.91854586264822L213.57000000000002,155.90075239403765L213.84,154.70950854855244L214.11,155.09934448564834L214.38000000000002,155.03893593549373L214.65,155.8847335205836L214.92000000000002,156.3528143327636L215.19,155.04184454184602L215.46,155.79617708876674L215.73000000000002,155.81077063824776L216,155.64669407374518L216.27,155.7620382468605L216.54000000000002,155.78910299167794L216.81,156.27749083355522L217.08,155.98464226190904L217.35000000000002,156.15751751582926L217.62,156.35766378385486L217.89000000000001,156.70526682950194L218.16000000000003,155.56084664877687L218.43,156.4414535843701L218.70000000000002,157.31208988179984L218.97000000000003,157.95696857580907L219.24,157.5053693822355L219.51,156.88201630254116L219.77999999999997,157.5760547114399L220.04999999999998,158.09308591248362L220.32,157.7317145708217L220.58999999999997,157.58906653676664L220.85999999999999,158.77893988639346L221.13,158.68715414155125L221.39999999999998,157.46060925228403L221.67,158.13336641480788L221.94,158.33859914235126L222.20999999999998,159.19521385075683L222.48,159.78357047603518L222.75,158.34893138727676L223.01999999999998,159.09319685297504L223.29,160.02585347394063L223.56,158.1693757209406L223.82999999999998,158.75810794031133L224.1,158.84083557481563L224.36999999999998,158.94004457919183L224.64,158.99495941926378L224.91,159.590117987936L225.17999999999998,160.22729339199748L225.45,160.23473301654474L225.72,159.69667711986045L225.98999999999998,160.05424392703782L226.26,160.66484350781576L226.53,159.63427127619073L226.79999999999998,159.31950735993263L227.07,159.36375377788542L227.34,160.38657623003868L227.60999999999999,160.7844076260339L227.88,160.59394880880456L228.15,160.51762823748774L228.42,160.64533050133468L228.69,160.6974306663907L228.95999999999998,160.82429273274528L229.23,160.91193637894247L229.5,161.60398071060112L229.76999999999998,161.61131200705304L230.04,161.61509959373856L230.31,162.07779692143743L230.57999999999998,162.40827701545544L230.85,161.62062746331702L231.12,160.42679916418192L231.39,160.70053553501265L231.66,160.46982865663833L231.93,160.22797119971517L232.2,160.79750406564807L232.47,161.4160807119791L232.74,161.43139423478476L233.01,161.58318009944364L233.28,161.91916429532532L233.55,161.837134206033L233.82,162.2812057687031L234.09,161.82896395390506L234.35999999999999,162.41780578918116L234.63,162.2671343045735L234.9,163.00361983063107L235.17,163.19280768360986L235.44,163.13032015850536L235.71,163.4639195995721L235.98,163.42768015065334L236.25,163.45174285140453L236.52,163.56680638000077L236.79,163.47351363989534L237.06,162.71729042152106L237.33,163.35019101695556L237.6,163.7934343920086L237.87,164.33539410286062L238.14000000000001,164.19139446826526L238.41,163.50075738666277L238.68,163.13777099067966L238.95,163.5397473038137L239.22,163.0901374242246L239.49,163.18866110297358L239.76,163.48796583798304L240.03,163.3483699326919L240.3,163.78337929476996L240.57,164.5380524016509L240.84,164.3981631237597L241.11,163.77513610674004L241.38,164.8964317519916L241.65,165.12726719067825L241.92000000000002,164.06268679019226L242.19,164.66481642868123L242.46,164.51640133997478L242.73000000000002,164.2317863237302L243,164.99685499775285L243.27,164.08034830538236L243.54000000000002,164.5211458928752L243.81,165.0234830631925L244.08,165.4736165847502L244.35,165.63420978537928L244.62,165.2106842008107L244.89000000000001,164.66518789043494" style="fill: none;" fill="none"></path></g></g></g></g><g opacity="0.2"><g><g><g><path stroke="rgb(255, 112, 67)" stroke-width="2px" d="M32.94,-3.558816849039133L33.21,4.421260463503688L33.48,5.390721270671265L33.75,3.5408154680178776L34.02,-1.452489715356078L34.29,2.56453265135105L34.56,5.118398824563401L34.83,3.0633762455903595L35.1,3.7191767795727864L35.370000000000005,11.004360146820545L35.64,11.185460406427206L35.910000000000004,9.843223697290972L36.18,14.489037526914718L36.45,11.144617111637041L36.720000000000006,7.711231605937855L36.99,12.529510400616216L37.260000000000005,26.60143931095417L37.53,10.328791001668352L37.800000000000004,11.404677693087326L38.06999999999999,12.39466793032794L38.339999999999996,15.745339740927397L38.61,19.91926832611744L38.879999999999995,17.216180205345154L39.15,19.774205521895333L39.419999999999995,15.439731467801796L39.69,23.08985430231461L39.96,20.95982765979493L40.23,23.345311929400143L40.5,23.835862597593906L40.769999999999996,25.95377953923665L41.04,26.251196328837143L41.31,29.74838917988998L41.58,28.588038909893765L41.85,26.800824584869236L42.12,31.772078700363636L42.39,29.684290187290088L42.660000000000004,25.902208697910485L42.93,35.696065595516785L43.2,33.04424398850936L43.47,37.31991942169576L43.74,36.90864608322199L44.010000000000005,27.64279750448006L44.28,34.607878998495075L44.550000000000004,37.2354051218583L44.82,42.63661067990157L45.09,38.43010636533682L45.36,42.65939720605429L45.63,43.88071443083194L45.900000000000006,40.090263933516475L46.17,45.51781918624273L46.44,42.17806512690507L46.709999999999994,43.11425278736995L46.98,41.010043266300976L47.25,47.32514449094351L47.519999999999996,43.497756235874625L47.79,38.907089096422375L48.059999999999995,47.43089831849703L48.33,48.51733503204125L48.6,47.343797234388504L48.87,51.36992406730469L49.14,52.79931258180967L49.41,53.110195865997895L49.68,51.585438701968926L49.95,48.20415661082818L50.22,53.69824547664477L50.49,54.236131760936516L50.76,57.5665404280791L51.03,56.60718583200987L51.3,55.97925663051698L51.57,53.48775224674207L51.84,55.36178868894394L52.11,60.281002791455165L52.38,57.338396199620696L52.65,57.44062489958909L52.92,54.70384518171732L53.190000000000005,58.95154783989374L53.46,63.918389205749214L53.730000000000004,59.21665518673566L54,59.55941678297061L54.27,60.925771451340275L54.540000000000006,64.43078805678167L54.81,62.069485147985134L55.08,66.29412231307762L55.349999999999994,59.97293453720901L55.62,66.29572003277448L55.89,70.25892714239083L56.16,60.47384502280217L56.43,63.38641194827281L56.699999999999996,64.55591740573828L56.97,66.54714531967274L57.239999999999995,62.93491665044657L57.51,68.72864136099815L57.78,70.10339039793381L58.05,66.17103449484476L58.32,71.27472182076713L58.589999999999996,71.39272483266318L58.86,70.66804482730537L59.13,68.2397898550217L59.4,66.24180333316326L59.67,75.40821288124874L59.94,74.87570305054004L60.21,72.13926570117475L60.480000000000004,72.9289450015013L60.75,76.60617296569623L61.02,71.26309397186226L61.29,76.07414498695961L61.56,72.61509452359036L61.830000000000005,73.35289865502945L62.1,77.7536653962273L62.370000000000005,69.92894730373071L62.64,76.36047918120256L62.910000000000004,76.50930803899581L63.18000000000001,78.87761048170238L63.449999999999996,77.19630214801204L63.72,79.58671906017341L63.989999999999995,75.8903945415066L64.25999999999999,82.86535400094895L64.53,80.6612362775665L64.8,80.82761469139503L65.07,73.83471258615072L65.34,81.81179734434075L65.61,77.49960260379774L65.88,81.61606400116132L66.15,83.63621571373483L66.42,81.0365609228611L66.69,83.12853393990261L66.96,74.43020554173452L67.23,82.23509162148606L67.5,83.54931751466715L67.77,80.37412858410524L68.04,80.36337567693913L68.31,81.59737321677117L68.58,83.0855349915532L68.85,80.88556373119354L69.12,86.00910843049104L69.39,86.64954042262757L69.66,86.0894255460455L69.93,80.09414722770452L70.2,80.37071757935561L70.47,87.54995691432403L70.74000000000001,88.75508137677727L71.01,84.6931706947776L71.28,92.08827971323178L71.55,87.26028779722178L71.82000000000001,85.98817323033626L72.09,89.03425119301447L72.36,88.44291738076852L72.63000000000001,90.31941380409094L72.9,87.71887139116342L73.17,84.77838241194303L73.44000000000001,89.56608896702528L73.71000000000001,88.84238534592666L73.98,91.74734408236468L74.25,87.00698582369549L74.52000000000001,85.81418662747514L74.79,90.27276292500588L75.06,91.62577790193833L75.33000000000001,93.9888814154726L75.60000000000001,93.47998233139515L75.87,89.35804303792807L76.13999999999999,91.5381188839674L76.41,88.6210377663374L76.67999999999999,94.1937572658062L76.94999999999999,93.24187137530402L77.22,94.14093107328966L77.49,92.27843371778727L77.75999999999999,94.7221459941222L78.03,95.97641935772621L78.3,93.3893307590714L78.57,93.03097237531958L78.83999999999999,88.806322529912L79.11,91.64782896981791L79.38,91.05747154183113L79.64999999999999,93.40729876550346L79.92,92.01184277408399L80.19,95.26913674462301L80.46,91.6990574426376L80.72999999999999,92.33197000794686L81,93.83108757493588L81.27,96.01844192181645L81.53999999999999,90.79975681866593L81.81,97.9025972554317L82.08,93.8299970678412L82.35,97.71842835958189L82.62,96.61776433254666L82.89,99.85643092027077L83.16,94.87315586610482L83.42999999999999,99.15245786939678L83.7,93.69419089360879L83.97,99.9435066437492L84.24,94.4401104266827L84.51,100.20406175748661L84.78,99.55879856531439L85.05,100.89702829489342L85.32000000000001,98.99131642568571L85.59,102.28837586423525L85.86,100.35655522633058L86.13,103.9475063268955L86.4,101.29412504113638L86.67,102.80241047590971L86.94,101.55337408242318L87.21000000000001,98.78413275801219L87.48,95.72049255898365L87.75,102.70245155233604L88.02000000000001,103.45358269489729L88.29,98.73842022224115L88.56,103.88558834848496L88.83,102.74003600615723L89.10000000000001,103.36565739031023L89.37,104.5233194335149L89.64,100.9677717725818L89.91000000000001,107.54593881334252L90.18,104.54305000373951L90.45,102.94738451792644L90.72,104.07930552157073L90.99000000000001,102.81739860830399L91.26,105.3612980538836L91.53,103.17542730386442L91.80000000000001,102.32906699524477L92.07000000000001,107.42392882188925L92.34,100.68965442249409L92.61000000000001,106.87999402731657L92.88,104.54256815176743L93.14999999999999,104.99244036926673L93.41999999999999,105.79504091063372L93.69,102.99890463799238L93.96,105.18316498799966L94.22999999999999,100.79736101856598L94.5,104.52873392804311L94.77,110.14223332072682L95.03999999999999,105.61004779430537L95.30999999999999,106.97991490994511L95.58,102.95721176209359L95.85,106.87957557691978L96.11999999999999,107.36586565925525L96.39,105.85137955042033L96.66,106.94964699791029L96.92999999999999,107.33733495038288L97.2,105.47640995394724L97.47,107.45134366303682L97.74,102.71648866110124L98.00999999999999,107.87429557167567L98.28,108.48087112261699L98.55,105.57245066016912L98.82,110.36916023893998L99.09,106.65561585242934L99.36,106.60084957170946L99.63,108.18780368108017L99.9,108.02555904995936L100.17,111.68710780458956L100.44,106.42739554208057L100.71,108.46915451150673L100.98,108.9629893812996L101.25,113.88783988385246L101.52,111.70303428029784L101.79,109.4710008433232L102.06,111.67200554935978L102.33,107.66643984730429L102.6,112.0132645282608L102.87,112.04755210016785L103.14,112.87147459129876L103.41,111.47347619671089L103.68,112.2868613460316L103.95,112.38072737822166L104.22,115.56546458601952L104.49000000000001,108.60619067629942L104.76,111.78234331080547L105.03,112.02049230784178L105.3,115.83010910136196L105.57000000000001,118.14289078460291L105.84,110.01813107728958L106.11,115.29034613044217L106.38000000000001,109.88628116135416L106.65,111.06954476065361L106.92,113.36745243433577L107.19000000000001,117.3076384319709L107.46000000000001,116.29380920242804L107.73,115.8278329848097L108,114.14795752672049L108.27000000000001,114.91706935602886L108.54,116.45351777053797L108.81,115.92036758391903L109.08000000000001,114.64341547684029L109.35000000000001,113.60665389752158L109.62,117.57759599932112L109.88999999999999,112.08376707996315L110.16,114.65615919346995L110.42999999999999,114.08400435774372L110.69999999999999,113.46871743036004L110.97,115.2235715913658L111.24,117.07789648381564L111.50999999999999,115.04912215700516L111.78,115.89910903573036L112.05,117.60753422316449L112.32,114.75846397532867L112.58999999999999,114.48368154810026L112.86,116.71034487164938L113.13,115.11036173856029L113.39999999999999,118.88091048139793L113.67,119.61238079546736L113.94,115.00616758975846L114.21,118.41111114879067L114.47999999999999,112.67822024971247L114.75,117.517174298087L115.02,117.06257232307242L115.28999999999999,119.68107640227446L115.56,116.36451463917128L115.83,116.84801505219477L116.1,117.84636161705622L116.37,120.49065745707887L116.64,116.37581279988474L116.91,119.0375313927921L117.17999999999999,116.8093083904913L117.45,120.48357550112101L117.72,117.20409731939435L117.99,122.13008905030215L118.26,120.79521326405498L118.53,122.36591754968352L118.8,117.32769869038692L119.07000000000001,119.15474188499726L119.34,116.79638714945087L119.61,122.4037619499633L119.88,117.36616442610438L120.15,122.8254711877268L120.42,122.79301592134513L120.69,119.26249286217185L120.96000000000001,121.9729609263058L121.23,120.21869639995008L121.5,120.22247513383627L121.77000000000001,122.61396987277729L122.04,119.92773389071226L122.31,122.32389498559328L122.58,121.59536650461646L122.85000000000001,123.12216519936919L123.12,119.44285132334784L123.39,122.15011760793054L123.66000000000001,117.73978356902415L123.93,126.16748234314414L124.2,119.43786795953146L124.47,124.56932517542289L124.74000000000001,123.1511016783233L125.01,121.89746233047202L125.28,126.4704214099508L125.55000000000001,122.61469899089292L125.82000000000001,126.9371521063149L126.09,121.41753776629383L126.36000000000001,121.49567386765892L126.63,122.09243485474816L126.89999999999999,128.24225451281438L127.16999999999999,121.86961001845508L127.44,125.9075232042143L127.71,123.41163143143058L127.97999999999999,123.95288433936926L128.25,124.32044863185057L128.51999999999998,125.21316817230904L128.79,125.523988054922L129.06,125.87189785906902L129.32999999999998,127.54680263365692L129.6,123.7993701051634L129.87,127.58899004184283L130.14,123.662397341946L130.41,128.60645852180627L130.68,125.62496140370003L130.95,129.6810962021924L131.22,126.97114169081816L131.49,127.04398376064805L131.76,124.10694382712245L132.03,128.84302247946079L132.3,127.00905583283075L132.57,124.85271753657324L132.84,126.49086207781846L133.10999999999999,126.7208576322748L133.38,127.43532998401386L133.65,127.33499699114607L133.92,127.28828271048573L134.19,129.06371068266722L134.46,128.12930460646749L134.73,128.6817986137019L135,128.0349630624629L135.27,125.21391631089725L135.54,126.7762135476447L135.81,126.70903957864412L136.08,125.81999098939392L136.35,129.74168274752225L136.62,126.48675999589838L136.89000000000001,127.66900916999349L137.16,130.73503960840978L137.43,128.91275787210236L137.7,127.82044383253044L137.97,124.20175454278404L138.24,124.82454821667993L138.51,127.56716087947673L138.78,129.58226582665856L139.05,129.31997984991625L139.32,129.65605892011752L139.59,129.18152348983747L139.86,129.05562064166253L140.13,128.64378302916884L140.4,128.70201103589858L140.67000000000002,131.01961123886016L140.94,126.27799128884307L141.21,128.3314288284343L141.48000000000002,128.529210042495L141.75,126.85454619389313L142.02,131.10702933084505L142.29000000000002,130.28061515780595L142.56,128.52795469130461L142.83,128.49851733990587L143.1,129.73298405139494L143.37,129.62407916555037L143.64000000000001,129.35381093048133L143.91,132.16366096385397L144.18,132.95858357445553L144.45000000000002,129.56751228009279L144.72,133.3737751302811L144.99,133.4671212695539L145.26000000000002,132.6729087565954L145.53,131.87532327983243L145.8,131.06234390059342L146.07000000000002,130.7108836082312L146.34,130.84693070844963L146.61,131.55944395151275L146.88000000000002,132.34171794784757L147.15,133.747888805488L147.42000000000002,130.15882707186617L147.69,134.3526193705889L147.96,128.7778710207114L148.23000000000002,130.13721347485597L148.5,133.4864777704844L148.77,135.07265838063682L149.04000000000002,133.51483729510355L149.31,132.72776379952063L149.58,132.67502002905195L149.85000000000002,132.85951861309317L150.12,132.23044184308785L150.39000000000001,131.61022227314803L150.66000000000003,133.70277858468202L150.93,132.92608392697113L151.20000000000002,134.70562032123024L151.47000000000003,132.45139633291043L151.74,133.0916571407937L152.01,133.41823865501928L152.27999999999997,130.6438935037989L152.54999999999998,135.49911005623068L152.82,133.62615778096594L153.08999999999997,133.18951113206836L153.35999999999999,135.29976282326075L153.63,137.09519399244053L153.89999999999998,134.53619229163115L154.17,134.23374775711162L154.44,133.56882373644757L154.70999999999998,136.09213035037885L154.98,136.24352697197062L155.25,137.0184083446287L155.51999999999998,134.77180522565658L155.79,135.52783730998635L156.06,133.79398175071066L156.32999999999998,138.28157060908583L156.6,136.30204028578905L156.86999999999998,135.86312386049676L157.14,136.75555809386648L157.41,133.54141523545752L157.67999999999998,136.01277693876852L157.95,138.04589427348512L158.22,136.8294589700034L158.48999999999998,134.69748589912285L158.76,130.4166368973943L159.03,132.02114056280027L159.29999999999998,136.7911707586967L159.57,134.75114265227546L159.84,136.47011786183486L160.10999999999999,140.39021824042385L160.38,135.06513895380957L160.65,135.17675742707576L160.92,134.88462832885293L161.19,139.45640179887414L161.45999999999998,137.8450444231813L161.73,136.07809324161366L162,135.34790363936472L162.26999999999998,140.3678945457706L162.54,135.80643017188862L162.81,133.994717478179L163.07999999999998,135.3343800833592L163.35,138.55597262686263L163.62,135.8843316874252L163.89,136.86403184899916L164.16,138.14122488206397L164.43,137.28470130092825L164.7,139.09695924818516L164.97,138.45767482456105L165.24,136.4656036696755L165.51,138.22019788422264L165.78,139.92684148739164L166.05,140.59891720574635L166.32,140.3179150839838L166.59,140.5312804052463L166.85999999999999,139.61964817488422L167.13,139.57464573675622L167.4,135.88575822286882L167.67,141.7087934816686L167.94,140.4177915855096L168.21,138.95551033375355L168.48,137.94636014046577L168.75,141.12816819548607L169.02,140.05734728993133L169.29,141.52645055118663L169.56,141.77708331839398L169.83,140.90307358279824L170.1,141.52821311497917L170.37,143.12136789841148L170.64000000000001,141.90996033984882L170.91,139.02868843193238L171.18,139.84639122852911L171.45,143.87366562995774L171.72,139.33768868933504L171.99,139.82935522525358L172.26,141.9138785572006L172.53,143.1601760026354L172.8,143.68420270257272L173.07,141.57416657673625L173.34,139.26328060059595L173.61,140.74920429977087L173.88,139.7296308875084L174.15,144.08790589295901L174.42000000000002,143.08558404932802L174.69,141.34888809948015L174.96,139.0766073425229L175.23000000000002,142.73246263569365L175.5,142.07205280718895L175.77,143.08925500053627L176.04000000000002,144.14893624931574L176.31,144.87715406257374L176.58,142.3748967716327L176.85,145.66316875184958L177.12,143.3035269643252L177.39000000000001,141.37067922090108L177.66,145.55720569909766L177.93,145.49918691756633L178.20000000000002,141.56821316881823L178.47,143.55716496620042L178.74,143.7266120162721L179.01000000000002,144.79364784778312L179.28,143.40858337455072L179.55,146.75593294260594L179.82000000000002,145.4806165961692L180.09,143.16170398059947L180.36,144.64154112854828L180.63000000000002,144.89453243435577L180.9,147.1252788193524L181.17000000000002,144.91442150851856L181.44,145.5698543133644L181.71,143.10710888413283L181.98000000000002,144.29294658738834L182.25,146.497343277702L182.52,146.3267106181727L182.79000000000002,147.45260847216616L183.06,143.06284190427797L183.33,146.5336089787575L183.60000000000002,146.42905978113413L183.87,144.57047430282603L184.14000000000001,144.05706736674676L184.41000000000003,144.32247904115L184.68,145.9595901367183L184.95000000000002,144.20706915368254L185.22000000000003,145.9203952828852L185.49,146.04024328062167L185.76,143.82400317604726L186.02999999999997,145.9928886440511L186.29999999999998,144.8748335649188L186.57,146.02223089308694L186.83999999999997,147.86210022637476L187.10999999999999,147.26997389443792L187.38,145.88944263383746L187.64999999999998,146.0187501466045L187.92,146.62160402507737L188.19,145.5584990912332L188.45999999999998,149.67082036573154L188.73,147.2446196044867L189,146.6042129729803L189.26999999999998,145.23539198333253L189.54,148.51096462802246L189.81,145.07813705618565L190.07999999999998,147.77698995172977L190.35,150.91992016079334L190.61999999999998,147.81743381659572L190.89,149.9233678605121L191.16,148.73670593677807L191.42999999999998,148.3393048629738L191.7,148.329097209355L191.97,147.29523942218378L192.23999999999998,149.2421306145306L192.51,146.59309233667759L192.78,148.76729085668921L193.04999999999998,149.26557017690862L193.32,148.85547610773492L193.59,149.36091980596L193.85999999999999,150.6813400330452L194.13,150.14485492356695L194.4,149.52187104494527L194.67,147.70763496853985L194.94,149.14768128784803L195.20999999999998,151.31633851018088L195.48,148.29376351145598L195.75,149.39914461569145L196.01999999999998,152.34902970836714L196.29,150.9293289545637L196.56,145.93244158218687L196.82999999999998,150.23437794785087L197.1,149.55309632076668L197.37,150.67702238576916L197.64,147.44190628626026L197.91,151.02931957892503L198.18,148.7929875151469L198.45,149.79461828160746L198.72,151.25490238374243L198.99,149.36472390047635L199.26,149.71889778026022L199.53,153.68219999223948L199.8,150.11598184618813L200.07,151.00147360706558L200.34,153.41337731308664L200.60999999999999,150.91027678119448L200.88,149.45832998620776L201.15,149.95609575366746L201.42,152.4234314569487L201.69,153.66368039210255L201.96,150.51968503657443L202.23,150.83919093499964L202.5,151.54333517012688L202.77,153.55348211412246L203.04,151.52307836682752L203.31,151.6855575837768L203.58,152.84370147895353L203.85,155.10286444998707L204.12,152.28221712834562L204.39000000000001,151.27827220438766L204.66,153.15578939307196L204.93,153.9243115877303L205.2,153.4642507370848L205.47,153.97475388101662L205.74,155.86699291547905L206.01,154.01708711282566L206.28,153.54466295500214L206.55,151.1244726630931L206.82,152.91457809995L207.09,152.30345031590417L207.36,151.7554895213017L207.63,151.9891370064937L207.9,152.7317850182836L208.17000000000002,155.34912250850064L208.44,151.92904499345101L208.71,152.96754377593214L208.98000000000002,153.48184467422274L209.25,155.8416830066305L209.52,151.30938335737358L209.79000000000002,152.75669549720791L210.06,156.6778863828916L210.33,153.63930248641051L210.6,151.3156854739556L210.87,155.14211002508034L211.14000000000001,157.03024697762268L211.41,155.06432263237926L211.68,151.88885473488617L211.95000000000002,155.74553451773065L212.22,159.3833584028941L212.49,154.30600809133972L212.76000000000002,155.02191331867988L213.03,156.11086073460487L213.3,156.2839153343095L213.57000000000002,155.87406219112185L213.84,152.9226427803246L214.11,155.6840983912922L214.38000000000002,154.9483231102618L214.65,157.15342989821846L214.92000000000002,157.05493555103357L215.19,153.07538985546964L215.46,156.9276759091478L215.73000000000002,155.8326609624693L216,155.4005792269913L216.27,155.93505450653342L216.54000000000002,155.82970010890412L216.81,157.01007259637117L217.08,155.54536940443975L217.35000000000002,156.41683039670954L217.62,156.6578831858933L217.89000000000001,157.22667139797258L218.16000000000003,153.8442163776893L218.43,157.7623639877599L218.70000000000002,158.61804432794452L218.97000000000003,158.92428661682285L219.24,156.82797059187521L219.51,155.9469866829996L219.77999999999997,158.61711232478802L220.04999999999998,158.86863271404917L220.32,157.18965755832883L220.58999999999997,157.3750944856841L220.85999999999999,160.56374991083374L221.13,158.54947552428794L221.39999999999998,155.6207919183832L221.67,159.14250215859366L221.94,158.64644823366632L222.20999999999998,160.48013591336516L222.48,160.66610541395272L222.75,156.19697275413918L223.01999999999998,160.20959505152243L223.29,161.42483840538907L223.56,155.38465909144054L223.82999999999998,159.6412062693674L224.1,158.96492702657213L224.36999999999998,159.08885808575613L224.64,159.0773316793717L224.91,160.48285584094432L225.17999999999998,161.18305649808968L225.45,160.2458924533656L225.72,158.88959327483406L225.98999999999998,160.59059413780386L226.26,161.58074287898268L226.53,158.08841292875317L226.79999999999998,158.84736148554546L227.07,159.43012340481465L227.34,161.92080990826855L227.60999999999999,161.38115472002673L227.88,160.30826058296057L228.15,160.40314738051248L228.42,160.8368838971051L228.69,160.7755809139747L228.95999999999998,161.0145858322772L229.23,161.04340184823823L229.5,162.6420472080891L229.76999999999998,161.6223089517309L230.04,161.62078097376687L230.31,162.77184291298573L230.57999999999998,162.90399715648246L230.85,160.43915313510942L231.12,158.63605671547927L231.39,161.11114009125876L231.66,160.1237683390769L231.93,159.86518501433042L232.2,161.6518033645474L232.47,162.34394568147567L232.74,161.45436451899317L233.01,161.81085889643202L233.28,162.4231405891478L233.55,161.7140890720945L233.82,162.94731311270823L234.09,161.15060123170798L234.35999999999999,163.30106854209532L234.63,162.04112707766203L234.9,164.10834811971736L235.17,163.47658946307806L235.44,163.0365888708486L235.71,163.9643187611722L235.98,163.3733209772752L236.25,163.48783690253128L236.52,163.73940167289513L236.79,163.33357452973723L237.06,161.58295559395964L237.33,164.2995419101073L237.6,164.45829945458817L237.87,165.14833366913865L238.14000000000001,163.9753950163722L238.41,162.464801764259L238.68,162.593291396705L238.95,164.14271177351475L239.22,162.415722604841L239.49,163.33644662109705L239.76,163.93692294049723L240.03,163.1389760747552L240.3,164.43589333788705L240.57,165.67006206197235L240.84,164.1883292069229L241.11,162.84059558121058L241.38,166.57837521986892L241.65,165.4735203487082L241.92000000000002,162.4658161894633L242.19,165.5680108864147L242.46,164.2937787069151L242.73000000000002,163.80486379936337L243,166.1444580087868L243.27,162.7055882668266L243.54000000000002,165.1823422741145L243.81,165.7769888186684L244.08,166.14881686708677L244.35,165.8750995863229L244.62,164.57539582395782L244.89000000000001,163.84694342487134" style="fill: none;" fill="none"></path></g></g></g></g></g></g><g transform="translate(60, 177)" clip-path="url(#clip_1)"><clipPath id="clip_1"><rect width="270" height="23"></rect></clipPath><g><g><line x1="0" y1="0" x2="0" y2="5" style="visibility: inherit;" fill="rgb(0, 0, 0)" stroke="rgb(204, 204, 204)" stroke-width="1px"></line><line x1="27" y1="0" x2="27" y2="5" style="visibility: inherit;" fill="rgb(0, 0, 0)" stroke="rgb(204, 204, 204)" stroke-width="1px"></line><line x1="54" y1="0" x2="54" y2="5" style="visibility: inherit;" fill="rgb(0, 0, 0)" stroke="rgb(204, 204, 204)" stroke-width="1px"></line><line x1="81" y1="0" x2="81" y2="5" style="visibility: inherit;" fill="rgb(0, 0, 0)" stroke="rgb(204, 204, 204)" stroke-width="1px"></line><line x1="108" y1="0" x2="108" y2="5" style="visibility: inherit;" fill="rgb(0, 0, 0)" stroke="rgb(204, 204, 204)" stroke-width="1px"></line><line x1="135" y1="0" x2="135" y2="5" style="visibility: inherit;" fill="rgb(0, 0, 0)" stroke="rgb(204, 204, 204)" stroke-width="1px"></line><line x1="162" y1="0" x2="162" y2="5" style="visibility: inherit;" fill="rgb(0, 0, 0)" stroke="rgb(204, 204, 204)" stroke-width="1px"></line><line x1="189" y1="0" x2="189" y2="5" style="visibility: inherit;" fill="rgb(0, 0, 0)" stroke="rgb(204, 204, 204)" stroke-width="1px"></line><line x1="216" y1="0" x2="216" y2="5" style="visibility: inherit;" fill="rgb(0, 0, 0)" stroke="rgb(204, 204, 204)" stroke-width="1px"></line><line x1="243" y1="0" x2="243" y2="5" style="visibility: inherit;" fill="rgb(0, 0, 0)" stroke="rgb(204, 204, 204)" stroke-width="1px"></line><line x1="270" y1="0" x2="270" y2="5" style="visibility: inherit;" fill="rgb(0, 0, 0)" stroke="rgb(204, 204, 204)" stroke-width="1px"></line></g><g transform="translate(0, 8)"><text x="0" y="0" dx="0em" dy="0.95em" style="text-anchor: middle; visibility: hidden; font-family: Roboto, sans-serif; font-size: 12px; font-weight: 200;" fill="rgb(33, 33, 33)" stroke="none" stroke-width="1px">-100</text><text x="27" y="0" dx="0em" dy="0.95em" style="text-anchor: middle; visibility: inherit; font-family: Roboto, sans-serif; font-size: 12px; font-weight: 200;" fill="rgb(33, 33, 33)" stroke="none" stroke-width="1px">0</text><text x="54" y="0" dx="0em" dy="0.95em" style="text-anchor: middle; visibility: inherit; font-family: Roboto, sans-serif; font-size: 12px; font-weight: 200;" fill="rgb(33, 33, 33)" stroke="none" stroke-width="1px">100</text><text x="81" y="0" dx="0em" dy="0.95em" style="text-anchor: middle; visibility: inherit; font-family: Roboto, sans-serif; font-size: 12px; font-weight: 200;" fill="rgb(33, 33, 33)" stroke="none" stroke-width="1px">200</text><text x="108" y="0" dx="0em" dy="0.95em" style="text-anchor: middle; visibility: inherit; font-family: Roboto, sans-serif; font-size: 12px; font-weight: 200;" fill="rgb(33, 33, 33)" stroke="none" stroke-width="1px">300</text><text x="135" y="0" dx="0em" dy="0.95em" style="text-anchor: middle; visibility: inherit; font-family: Roboto, sans-serif; font-size: 12px; font-weight: 200;" fill="rgb(33, 33, 33)" stroke="none" stroke-width="1px">400</text><text x="162" y="0" dx="0em" dy="0.95em" style="text-anchor: middle; visibility: inherit; font-family: Roboto, sans-serif; font-size: 12px; font-weight: 200;" fill="rgb(33, 33, 33)" stroke="none" stroke-width="1px">500</text><text x="189" y="0" dx="0em" dy="0.95em" style="text-anchor: middle; visibility: inherit; font-family: Roboto, sans-serif; font-size: 12px; font-weight: 200;" fill="rgb(33, 33, 33)" stroke="none" stroke-width="1px">600</text><text x="216" y="0" dx="0em" dy="0.95em" style="text-anchor: middle; visibility: inherit; font-family: Roboto, sans-serif; font-size: 12px; font-weight: 200;" fill="rgb(33, 33, 33)" stroke="none" stroke-width="1px">700</text><text x="243" y="0" dx="0em" dy="0.95em" style="text-anchor: middle; visibility: inherit; font-family: Roboto, sans-serif; font-size: 12px; font-weight: 200;" fill="rgb(33, 33, 33)" stroke="none" stroke-width="1px">800</text><text x="270" y="0" dx="0em" dy="0.95em" style="text-anchor: middle; visibility: hidden; font-family: Roboto, sans-serif; font-size: 12px; font-weight: 200;" fill="rgb(33, 33, 33)" stroke="none" stroke-width="1px">900</text></g><line x1="0" y1="0" x2="270" y2="0" fill="rgb(0, 0, 0)" stroke="rgb(204, 204, 204)" stroke-width="1px"></line></g></g></g></g></svg>