<svg viewBox="0 0 330 200" xmlns="http://www.w3.org/2000/svg"><g><g><g><g><g><line x1="60" y1="177" x2="55" y2="177" style="visibility: inherit;" fill="rgb(0, 0, 0)" stroke="rgb(204, 204, 204)" stroke-width="1px"></line><line x1="60" y1="154.875" x2="55" y2="154.875" style="visibility: inherit;" fill="rgb(0, 0, 0)" stroke="rgb(204, 204, 204)" stroke-width="1px"></line><line x1="60" y1="132.75" x2="55" y2="132.75" style="visibility: inherit;" fill="rgb(0, 0, 0)" stroke="rgb(204, 204, 204)" stroke-width="1px"></line><line x1="60" y1="110.625" x2="55" y2="110.625" style="visibility: inherit;" fill="rgb(0, 0, 0)" stroke="rgb(204, 204, 204)" stroke-width="1px"></line><line x1="60" y1="88.5" x2="55" y2="88.5" style="visibility: inherit;" fill="rgb(0, 0, 0)" stroke="rgb(204, 204, 204)" stroke-width="1px"></line><line x1="60" y1="66.375" x2="55" y2="66.375" style="visibility: inherit;" fill="rgb(0, 0, 0)" stroke="rgb(204, 204, 204)" stroke-width="1px"></line><line x1="60" y1="44.25" x2="55" y2="44.25" style="visibility: inherit;" fill="rgb(0, 0, 0)" stroke="rgb(204, 204, 204)" stroke-width="1px"></line><line x1="60" y1="22.125" x2="55" y2="22.125" style="visibility: inherit;" fill="rgb(0, 0, 0)" stroke="rgb(204, 204, 204)" stroke-width="1px"></line><line x1="60" y1="0" x2="55" y2="0" style="visibility: inherit;" fill="rgb(0, 0, 0)" stroke="rgb(204, 204, 204)" stroke-width="1px"></line></g><g transform="translate(50, 0)"><text x="0" y="177" dx="0em" dy="0.3em" style="text-anchor: end; visibility: hidden; font-family: Roboto, sans-serif; font-size: 12px; font-weight: 200;" fill="rgb(33, 33, 33)" stroke="none" stroke-width="1px">0</text><text x="0" y="154.875" dx="0em" dy="0.3em" style="text-anchor: end; visibility: inherit; font-family: Roboto, sans-serif; font-size: 12px; font-weight: 200;" fill="rgb(33, 33, 33)" stroke="none" stroke-width="1px">2e-3</text><text x="0" y="132.75" dx="0em" dy="0.3em" style="text-anchor: end; visibility: hidden; font-family: Roboto, sans-serif; font-size: 12px; font-weight: 200;" fill="rgb(33, 33, 33)" stroke="none" stroke-width="1px">4e-3</text><text x="0" y="110.625" dx="0em" dy="0.3em" style="text-anchor: end; visibility: inherit; font-family: Roboto, sans-serif; font-size: 12px; font-weight: 200;" fill="rgb(33, 33, 33)" stroke="none" stroke-width="1px">6e-3</text><text x="0" y="88.5" dx="0em" dy="0.3em" style="text-anchor: end; visibility: hidden; font-family: Roboto, sans-serif; font-size: 12px; font-weight: 200;" fill="rgb(33, 33, 33)" stroke="none" stroke-width="1px">8e-3</text><text x="0" y="66.375" dx="0em" dy="0.3em" style="text-anchor: end; visibility: inherit; font-family: Roboto, sans-serif; font-size: 12px; font-weight: 200;" fill="rgb(33, 33, 33)" stroke="none" stroke-width="1px">0.01</text><text x="0" y="44.25" dx="0em" dy="0.3em" style="text-anchor: end; visibility: hidden; font-family: Roboto, sans-serif; font-size: 12px; font-weight: 200;" fill="rgb(33, 33, 33)" stroke="none" stroke-width="1px">0.012</text><text x="0" y="22.125" dx="0em" dy="0.3em" style="text-anchor: end; visibility: inherit; font-family: Roboto, sans-serif; font-size: 12px; font-weight: 200;" fill="rgb(33, 33, 33)" stroke="none" stroke-width="1px">0.014</text><text x="0" y="0" dx="0em" dy="0.3em" style="text-anchor: end; visibility: hidden; font-family: Roboto, sans-serif; font-size: 12px; font-weight: 200;" fill="rgb(33, 33, 33)" stroke="none" stroke-width="1px">0.016</text></g><line x1="60" y1="0" x2="60" y2="177" fill="rgb(0, 0, 0)" stroke="rgb(204, 204, 204)" stroke-width="1px"></line></g></g><g transform="translate(60, 0)" clip-path="url(#clip_0)"><clipPath id="clip_0"><rect width="270" height="177"></rect></clipPath><g><g><g><line x1="0" y1="0" x2="0" y2="177" fill="rgb(0, 0, 0)" stroke="rgb(66, 66, 66)" stroke-width="1px" opacity="0.25"></line><line x1="27" y1="0" x2="27" y2="177" fill="rgb(0, 0, 0)" stroke="rgb(66, 66, 66)" stroke-width="1px" opacity="0.25"></line><line x1="54" y1="0" x2="54" y2="177" fill="rgb(0, 0, 0)" stroke="rgb(66, 66, 66)" stroke-width="1px" opacity="0.25"></line><line x1="81" y1="0" x2="81" y2="177" fill="rgb(0, 0, 0)" stroke="rgb(66, 66, 66)" stroke-width="1px" opacity="0.25"></line><line x1="108" y1="0" x2="108" y2="177" fill="rgb(0, 0, 0)" stroke="rgb(66, 66, 66)" stroke-width="1px" opacity="0.25"></line><line x1="135" y1="0" x2="135" y2="177" fill="rgb(0, 0, 0)" stroke="rgb(66, 66, 66)" stroke-width="1px" opacity="0.25"></line><line x1="162" y1="0" x2="162" y2="177" fill="rgb(0, 0, 0)" stroke="rgb(66, 66, 66)" stroke-width="1px" opacity="0.25"></line><line x1="189" y1="0" x2="189" y2="177" fill="rgb(0, 0, 0)" stroke="rgb(66, 66, 66)" stroke-width="1px" opacity="0.25"></line><line x1="216" y1="0" x2="216" y2="177" fill="rgb(0, 0, 0)" stroke="rgb(66, 66, 66)" stroke-width="1px" opacity="0.25"></line><line x1="243" y1="0" x2="243" y2="177" fill="rgb(0, 0, 0)" stroke="rgb(66, 66, 66)" stroke-width="1px" opacity="0.25"></line><line x1="270" y1="0" x2="270" y2="177" fill="rgb(0, 0, 0)" stroke="rgb(66, 66, 66)" stroke-width="1px" opacity="0.25"></line></g><g><line x1="0" y1="177" x2="270" y2="177" fill="rgb(0, 0, 0)" stroke="rgb(66, 66, 66)" stroke-width="1px" opacity="0.25"></line><line x1="0" y1="154.875" x2="270" y2="154.875" fill="rgb(0, 0, 0)" stroke="rgb(66, 66, 66)" stroke-width="1px" opacity="0.25"></line><line x1="0" y1="132.75" x2="270" y2="132.75" fill="rgb(0, 0, 0)" stroke="rgb(66, 66, 66)" stroke-width="1px" opacity="0.25"></line><line x1="0" y1="110.625" x2="270" y2="110.625" fill="rgb(0, 0, 0)" stroke="rgb(66, 66, 66)" stroke-width="1px" opacity="0.25"></line><line x1="0" y1="88.5" x2="270" y2="88.5" fill="rgb(0, 0, 0)" stroke="rgb(66, 66, 66)" stroke-width="1px" opacity="0.25"></line><line x1="0" y1="66.375" x2="270" y2="66.375" fill="rgb(0, 0, 0)" stroke="rgb(66, 66, 66)" stroke-width="1px" opacity="0.25"></line><line x1="0" y1="44.25" x2="270" y2="44.25" fill="rgb(0, 0, 0)" stroke="rgb(66, 66, 66)" stroke-width="1px" opacity="0.25"></line><line x1="0" y1="22.125" x2="270" y2="22.125" fill="rgb(0, 0, 0)" stroke="rgb(66, 66, 66)" stroke-width="1px" opacity="0.25"></line><line x1="0" y1="0" x2="270" y2="0" fill="rgb(0, 0, 0)" stroke="rgb(66, 66, 66)" stroke-width="1px" opacity="0.25"></line></g></g></g><g><g><line x1="0" y1="177" x2="270" y2="177" fill="rgb(0, 0, 0)" stroke="rgb(153, 153, 153)" stroke-width="1.5px"></line></g></g><g><g><line x1="27" y1="0" x2="27" y2="177" fill="rgb(0, 0, 0)" stroke="rgb(153, 153, 153)" stroke-width="1.5px"></line></g></g><g><g><g><g><g><path stroke="rgb(255, 112, 67)" stroke-width="2px" d="M36.18,-5.1338371996972105L36.45,2.357431306329424L36.720000000000006,8.655858771447877L36.99,16.45792715403387L37.260000000000005,15.411730105687093L37.53,12.857730316314742L37.800000000000004,20.39448800691826L38.06999999999999,24.928609205223214L38.339999999999996,25.83939871300209L38.61,29.55462513769823L38.879999999999995,31.441849610957924L39.15,28.48480202697605L39.419999999999995,34.476642576302666L39.69,38.88436235997027L39.96,45.099125838440614L40.23,48.26274588459274L40.5,48.10513483138924L40.769999999999996,49.39046576132729L41.04,51.50698583207115L41.31,57.39275921494585L41.58,60.11528381380355L41.85,61.97247552658189L42.12,62.871261020213986L42.39,65.15165686627398L42.660000000000004,65.25406068407844L42.93,65.72034358940785L43.2,64.18420725870732L43.47,64.32031765913132L43.74,62.00023427265233L44.010000000000005,66.03221436590611L44.28,63.761369480569115L44.550000000000004,64.89327516339954L44.82,66.61392829638862L45.09,69.709360518364L45.36,69.98294201858069L45.63,74.78134473911508L45.900000000000006,76.94031851367106L46.17,77.26401689295292L46.44,76.40993462048812L46.709999999999994,79.62386434141007L46.98,76.25039921917443L47.25,80.53942865896477L47.519999999999996,81.07699289314154L47.79,83.65236090431931L48.059999999999995,85.53882547354891L48.33,86.27421707498996L48.6,90.88643213078659L48.87,92.45126881820876L49.14,96.48029291665804L49.41,94.50469258663432L49.68,92.98790097089412L49.95,95.0060979726273L50.22,98.40400073085998L50.49,100.50240976679191L50.76,100.7366874435305L51.03,101.41748318057563L51.3,101.32048062717575L51.57,98.46549707745037L51.84,97.36000483297269L52.11,98.08474210426486L52.38,96.76987978197799L52.65,95.30659549582478L52.92,98.60271645137131L53.190000000000005,98.16663256614483L53.46,98.67342359265879L53.730000000000004,100.20779975356875L54,101.14526221393997L54.27,102.68213520043764L54.540000000000006,103.72685560686467L54.81,104.29180125609012L55.08,106.29340061878398L55.349999999999994,108.6161778820171L55.62,109.50947853239933L55.89,110.51431262074074L56.16,110.60350323664045L56.43,111.61823589155463L56.699999999999996,109.77433957896763L56.97,109.85438474821824L57.239999999999995,108.63033468981254L57.51,110.89363986732613L57.78,113.91311340163008L58.05,116.10745836378175L58.32,114.12609957700471L58.589999999999996,114.74546949350386L58.86,113.9997905260089L59.13,113.56975359209706L59.4,112.0246926095572L59.67,115.75086279034164L59.94,116.16961618600888L60.21,116.85246715589153L60.480000000000004,115.82875529808945L60.75,120.18974553137286L61.02,119.16365399488367L61.29,116.08677163597454L61.56,115.31766142268633L61.830000000000005,114.0399759364741L62.1,117.53682433792154L62.370000000000005,115.88848040463448L62.64,117.71523373886598L62.910000000000004,120.56823120137098L63.18000000000001,121.88500346957545L63.449999999999996,120.60387288723231L63.72,118.9676241832232L63.989999999999995,116.86505668253112L64.25999999999999,119.29100236268586L64.53,120.74397347627132L64.8,119.81505693835348L65.07,124.38722461880269L65.34,125.70718918544664L65.61,125.2313684697605L65.88,121.83033499479485L66.15,121.82836656803752L66.42,122.38216818955088L66.69,124.19966561706167L66.96,125.51994644022764L67.23,124.01021755781713L67.5,125.66296664886218L67.77,125.38982917366575L68.04,126.85730567619964L68.31,128.46680222767677L68.58,125.88875184779589L68.85,126.8678544855504L69.12,124.60623726115456L69.39,122.8786335222808L69.66,122.85987436073347L69.93,124.40491197137429L70.2,125.8750669853964L70.47,126.26155209896439L70.74000000000001,126.45065376096201L71.01,127.21356546587562L71.28,129.47193545449863L71.55,128.59507760101386L71.82000000000001,126.26903020789894L72.09,124.8665875292237L72.36,126.23114803281666L72.63000000000001,123.24297890981877L72.9,126.1208751318915L73.17,129.63469285807204L73.44000000000001,131.6890763836574L73.71000000000001,129.6102255796438L73.98,128.97684396287698L74.25,131.7282593725042L74.52000000000001,131.50846606240296L74.79,131.5409004892893L75.06,130.04384285759477L75.33000000000001,130.93824248726472L75.60000000000001,130.5179025335032L75.87,129.13472588666414L76.13999999999999,131.399820339514L76.41,133.11467547712218L76.67999999999999,135.64091796449753L76.94999999999999,133.39258143700692L77.22,134.42254460239246L77.49,132.24870950314823L77.75999999999999,129.56633446955487L78.03,129.7200654126707L78.3,126.65213139407358L78.57,127.22021302686645L78.83999999999999,126.66758846284978L79.11,127.08581121486519L79.38,126.15105013337117L79.64999999999999,127.56838032839153L79.92,130.37477212266037L80.19,131.97448210580444L80.46,133.72163749588196L80.72999999999999,131.1617685584883L81,132.65090222664574L81.27,133.35076376465202L81.53999999999999,134.01691037376443L81.81,133.5227147458514L82.08,135.26115342875508L82.35,137.88573604408762L82.62,136.14337114695152L82.89,136.5212212823816L83.16,135.33821659569742L83.42999999999999,135.4894882506437L83.7,137.04862372245978L83.97,137.80552939667012L84.24,138.18821803708533L84.51,139.73172829809582L84.78,139.23098208245997L85.05,138.3889638032477L85.32000000000001,138.83421092274736L85.59,139.4136388190788L85.86,140.70213705147142L86.13,141.21435063421444L86.4,138.78608998532795L86.67,137.79442872219207L86.94,139.2634129481136L87.21000000000001,136.4993947888013L87.48,135.36515514874287L87.75,132.61997821645113L88.02000000000001,136.80380231778463L88.29,137.5659900509753L88.56,136.87515841291292L88.83,136.1635351594929L89.10000000000001,135.69643918482143L89.37,137.0519316222697L89.64,138.5170649410146L89.91000000000001,138.42446007708543L90.18,136.6339522018851L90.45,135.97446012892627L90.72,136.94291880559098L90.99000000000001,138.80576606492463L91.26,138.3692604091127L91.53,139.6176390452562L91.80000000000001,137.0327149967814L92.07000000000001,139.50170019938585L92.34,140.9748820849823L92.61000000000001,141.02524571336647L92.88,142.97356918253095L93.14999999999999,143.7045230485076L93.41999999999999,142.20706637137826L93.69,141.00989074257728L93.96,140.28592606143596L94.22999999999999,137.73713633896898L94.5,138.27441608746045L94.77,141.17160440964705L95.03999999999999,140.62243152171607L95.30999999999999,140.47475288707346L95.58,138.9306702173774L95.85,135.97647545481993L96.11999999999999,135.6843482107108L96.39,138.17802964901725L96.66,138.76374790625377L96.92999999999999,139.68528907477136L97.2,139.24319420868284L97.47,139.50127917270214L97.74,138.16353898377926L98.00999999999999,139.42836127657716L98.28,140.12070193944103L98.55,140.0743883278402L98.82,142.76536352861828L99.09,140.82518669217362L99.36,142.32943978495615L99.63,141.67116841125136L99.9,142.7634104735357L100.17,143.23282908563405L100.44,143.18745223307366L100.71,143.7713217292838L100.98,144.60018892767394L101.25,146.17759248839423L101.52,146.88881034245742L101.79,146.95848256194049L102.06,147.33967412980098L102.33,145.33559021802515L102.6,144.23775714602445L102.87,145.2537167133156L103.14,145.4158952751857L103.41,145.20079812432874L103.68,145.98866657122366L103.95,146.05022834447036L104.22,147.42568195087358L104.49000000000001,146.16407010436515L104.76,143.7487806661287L105.03,145.4401085356576L105.3,146.29514866257176L105.57000000000001,146.06919829345364L105.84,147.50298713468794L106.11,148.82127460797224L106.38000000000001,148.0799892838033L106.65,147.2765956379891L106.92,148.32089523450185L107.19000000000001,148.9831194372793L107.46000000000001,148.2253687142641L107.73,147.204167668471L108,145.8615266576852L108.27000000000001,145.03850154588793L108.54,143.69184597443333L108.81,144.5452709400645L109.08000000000001,148.3647362199197L109.35000000000001,145.36205987057954L109.62,144.92500360724512L109.88999999999999,146.89297034667803L110.16,147.78598205246215L110.42999999999999,146.88620408772044L110.69999999999999,147.12260051886653L110.97,146.601719780686L111.24,144.42408342241345L111.50999999999999,142.71048195991315L111.78,145.2960766200756L112.05,146.92379126185574L112.32,148.596675144788L112.58999999999999,148.43358848162936L112.86,148.95414189684953L113.13,148.76412598817313L113.39999999999999,149.6881304411535L113.67,149.11417630810334L113.94,147.1742953406109L114.21,145.97816652657033L114.47999999999999,145.2452215840567L114.75,145.95696789773137L115.02,146.32758646114888L115.28999999999999,146.5312374915807L115.56,148.57285833639298L115.83,150.33699157848704L116.1,149.2220464236982L116.37,148.79065264155776L116.64,148.2823918013349L116.91,150.22778489450812L117.17999999999999,149.5852819062446L117.45,149.01689589185563L117.72,148.51268717343314L117.99,150.59676033616634L118.26,150.1259691543483L118.53,149.14605040935297L118.8,148.17899689270254L119.07000000000001,149.1930276671764L119.34,149.77458993784327L119.61,149.92497979889356L119.88,151.18793006651688L120.15,149.93777344775737L120.42,150.7491919602512L120.69,150.86798535250662L120.96000000000001,151.62253913428955L121.23,152.28244025091462L121.5,150.22264588308786L121.77000000000001,150.06172070132354L122.04,149.7308572249027L122.31,149.84366369820233L122.58,150.17318697407862L122.85000000000001,151.56226733947557L123.12,150.67966070496337L123.39,150.09206954201596L123.66000000000001,151.10771053585918L123.93,152.24320227554298L124.2,153.00184216905896L124.47,151.58439099628413L124.74000000000001,153.62012044460752L125.01,152.77278377257804L125.28,153.9802372647825L125.55000000000001,151.1354560617676L125.82000000000001,150.82812195471536L126.09,151.2485221143256L126.36000000000001,149.20545756733435L126.63,149.2483630575356L126.89999999999999,152.10996620764257L127.16999999999999,150.71601968637995L127.44,151.32013366175266L127.71,150.72938488189735L127.97999999999999,152.50092888604092L128.25,152.94577647277632L128.51999999999998,153.85495574188892L128.79,154.31221710754656L129.06,155.17825244562667L129.32999999999998,154.91497288794235L129.6,154.5698597120269L129.87,155.7135109331175L130.14,155.30538310614574L130.41,155.3273900311878L130.68,154.42375090112745L130.95,153.6066898934999L131.22,155.0048310089478L131.49,155.26069920162263L131.76,154.71028534505456L132.03,154.36193096775153L132.3,155.32980267229524L132.57,153.94402887317932L132.84,154.3032695566469L133.10999999999999,152.95950112138004L133.38,153.7194382373899L133.65,154.77221185871142L133.92,152.97041400672154L134.19,153.24645758501012L134.46,154.12251902804286L134.73,154.0523088801068L135,154.40972366831485L135.27,155.49112627589741L135.54,155.15327341521888L135.81,155.19325753981872L136.08,154.7805430362318L136.35,153.97041888685004L136.62,153.35528486386525L136.89000000000001,152.30801111372165L137.16,152.82954776150717L137.43,151.39933101150348L137.7,150.57562865088966L137.97,150.138296992501L138.24,151.30953576479948L138.51,150.5516923420256L138.78,149.70676631472824L139.05,150.18084839540612L139.32,151.0916619359241L139.59,151.8770740622769L139.86,151.96725124204286L140.13,152.2551713849776L140.4,153.47137629380734L140.67000000000002,153.34856884768402L140.94,151.4397688175841L141.21,150.93272083625072L141.48000000000002,152.4425322922405L141.75,153.70220601862718L142.02,155.65626816780653L142.29000000000002,155.81298971389907L142.56,156.62867660860266L142.83,155.0690931201971L143.1,154.03665578336805L143.37,155.70023877468543L143.64000000000001,155.4553239703642L143.91,156.6034083334681L144.18,157.55527800878687L144.45000000000002,156.6241132381271L144.72,156.81809509241813L144.99,157.70687821497498L145.26000000000002,157.16676885014013L145.53,155.0904455232448L145.8,153.90547487732107L146.07000000000002,155.69082399210103L146.34,156.55003416627173L146.61,156.26359116947089L146.88000000000002,156.07542692656514L147.15,156.57065370401858L147.42000000000002,155.41385145277266L147.69,156.2485048827567L147.96,155.89559770165985L148.23000000000002,156.25593761522347L148.5,155.91590401011536L148.77,155.39859764315943L149.04000000000002,156.51410082699252L149.31,156.4591833840049L149.58,156.98033058904124L149.85000000000002,155.40187026581737L150.12,155.73158371242513L150.39000000000001,155.7531208076494L150.66000000000003,155.70766764939177L150.93,155.93509688185176L151.20000000000002,157.30182969430157L151.47000000000003,157.2965614473429L151.74,156.3215281338327L152.01,155.09700371863627L152.27999999999997,155.77456870856227L152.54999999999998,156.4163149853395L152.82,158.1759059709778L153.08999999999997,159.594335602739L153.35999999999999,159.18676492436032L153.63,157.70482340373576L153.89999999999998,157.71609772837263L154.17,157.88777596246456L154.44,156.13256186479146L154.70999999999998,156.2028593120132L154.98,158.86264662930543L155.25,158.17313335524472L155.51999999999998,158.79181305395292L155.79,157.50872022364388L156.06,157.44789607101552L156.32999999999998,157.49031811456922L156.6,158.00887927180779L156.86999999999998,157.41867060175073L157.14,156.1623655120818L157.41,156.39440166438783L157.67999999999998,155.9869766380685L157.95,155.26119334722222L158.22,155.00381166123583L158.48999999999998,157.00896702730347L158.76,156.34361732946857L159.03,155.27785937950105L159.29999999999998,157.09449972864388L159.57,158.40262006942737L159.84,158.90730676442436L160.10999999999999,159.20895456999665L160.38,157.5996029532727L160.65,157.2301810484926L160.92,157.51673143479528L161.19,158.57525812065148L161.45999999999998,156.916740596428L161.73,158.1241548010717L162,158.2298646165865L162.26999999999998,157.62790091953892L162.54,157.2706289912408L162.81,158.26337639068655L163.07999999999998,157.1463472200144L163.35,156.29979032191758L163.62,155.2804098614436L163.89,157.26952688312755L164.16,157.06204739784715L164.43,157.7501488888481L164.7,157.69204917173832L164.97,157.27226910551636L165.24,157.76099304373898L165.51,158.20748605327807L165.78,158.81960002717636L166.05,158.52961182073082L166.32,159.1783269308201L166.59,158.03600392751883L166.85999999999999,156.7484063113417L167.13,156.89319225579956L167.4,155.99139744975133L167.67,157.54696077124956L167.94,156.9613103905756L168.21,158.325968834268L168.48,160.0746437778505L168.75,159.5776039143397L169.02,158.88563751033004L169.29,158.52996741675005L169.56,159.98843736046277L169.83,157.94976084786452L170.1,157.29726529001715L170.37,158.26153800806864L170.64000000000001,159.46049754447057L170.91,158.01123585697115L171.18,156.8220688089589L171.45,158.65920127302505L171.72,159.92702028320042L171.99,160.71173462542816L172.26,159.82827729000402L172.53,159.78384286718259L172.8,159.1164110625515L173.07,158.7469030041552L173.34,159.0214520467628L173.61,157.8325203937169L173.88,159.17150130170867L174.15,160.49282948007718L174.42000000000002,161.20124887615947L174.69,161.6703040997444L174.96,161.64155473524383L175.23000000000002,160.07786711020856L175.5,159.75063887316915L175.77,160.38683158217947L176.04000000000002,162.13456129061814L176.31,162.11632864340382L176.58,161.3600938690138L176.85,161.60224596037125L177.12,161.35523866053336L177.39000000000001,161.4175242215766L177.66,162.51332601277988L177.93,162.14023580023678L178.20000000000002,162.66824074460828L178.47,162.9903017227464L178.74,162.3093700700954L179.01000000000002,163.1750894222764L179.28,162.37600523131704L179.55,163.23282113729022L179.82000000000002,162.60336967426989L180.09,163.21373927675478L180.36,162.03065938088562L180.63000000000002,161.89343965110174L180.9,162.5772866856677L181.17000000000002,162.43513846460624L181.44,162.79540045660204L181.71,161.96552965487297L181.98000000000002,162.33538512897178L182.25,161.64104187029858L182.52,161.81462053416286L182.79000000000002,161.91557696895387L183.06,161.4791227000711L183.33,162.04299954626384L183.60000000000002,160.67676249425102L183.87,160.81794543501002L184.14000000000001,161.71037890512224L184.41000000000003,162.547214690028L184.68,162.85835921509113L184.95000000000002,161.95756427937232L185.22000000000003,161.9524952742814L185.49,161.94152487022333L185.76,162.0539028845932L186.02999999999997,162.25238641581794L186.29999999999998,162.2030089595671L186.57,161.25963208807664L186.83999999999997,161.8908181487976L187.10999999999999,162.42449920446643L187.38,162.68908119777143L187.64999999999998,162.02771144237602L187.92,162.97753706661473L188.19,162.28440985829636L188.45999999999998,161.87531995867047L188.73,162.94518590625736L189,163.30447048510175L189.26999999999998,162.60484072176405L189.54,163.19746884681734L189.81,161.77129122347935L190.07999999999998,162.52553914643855L190.35,164.03392360569742L190.61999999999998,163.49451355913646L190.89,163.83106658909279L191.16,163.6341349363027L191.42999999999998,163.74592624621062L191.7,163.73742619592733L191.97,163.1980479066104L192.23999999999998,162.40376837371377L192.51,161.9040853906553L192.78,163.0953919286359L193.04999999999998,163.87283463761585L193.32,164.28686438643504L193.59,165.15094402492406L193.85999999999999,164.65782034819603L194.13,164.45891001494303L194.4,163.45219156339118L194.67,163.41113089674045L194.94,163.4481961569109L195.20999999999998,163.68644237978737L195.48,163.33740981904907L195.75,164.1489789765326L196.01999999999998,164.19169035970685L196.29,163.66404476953664L196.56,163.28133844864644L196.82999999999998,162.79268688632322L197.1,163.57297718458244L197.37,162.60772995408192L197.64,161.95668486343902L197.91,162.26384544186976L198.18,162.74184966562726L198.45,163.6645135724569L198.72,164.56948998499902L198.99,164.07815022097952L199.26,164.8178275457279L199.53,164.64317804395725L199.8,163.7803517385109L200.07,163.49158679912065L200.34,163.8592436451747L200.60999999999999,164.7924113858707L200.88,163.51255610656824L201.15,163.43118047740901L201.42,164.7365480583015L201.69,164.83451092827653L201.96,165.33981833671254L202.23,165.97024252322893L202.5,164.41722894196263L202.77,164.28640804186102L203.04,164.87168910088081L203.31,165.2727941642603L203.58,166.30400183505205L203.85,166.93652878214687L204.12,166.58332118719122L204.39000000000001,166.0854410622572L204.66,165.9374963967777L204.93,166.26100545355976L205.2,166.72447927602803L205.47,165.8945088604703L205.74,165.92016521418032L206.01,164.69097889188973L206.28,165.14744267133895L206.55,165.07496237327842L206.82,165.26585983247423L207.09,165.29120837973386L207.36,163.12202100319948L207.63,161.9344874515664L207.9,163.3102669296088L208.17000000000002,164.27058326837607L208.44,164.30466317253L208.71,164.06406967157668L208.98000000000002,164.63684205248774L209.25,165.33653138027094L209.52,165.85628428565218L209.79000000000002,164.79575767590964L210.06,164.92927497004712L210.33,164.77401785585243L210.6,165.54673682045978L210.87,165.26642087121408L211.14000000000001,166.15797149409815L211.41,165.93365906828805L211.68,165.16513943128442L211.95000000000002,165.3066961175734L212.22,166.36824742894916L212.49,165.71617826398082L212.76000000000002,165.83421693217062L213.03,166.1074055782322L213.3,166.30386336903302L213.57000000000002,166.79873520255077L213.84,166.50373483595246L214.11,165.67497403038738L214.38000000000002,165.01452086202283L214.65,165.4848941281202L214.92000000000002,166.0039369792047L215.19,165.2388223083824L215.46,165.52848208538128L215.73000000000002,165.81291667237895L216,165.58617900571423L216.27,165.8631746657278L216.54000000000002,166.40162763490156L216.81,165.89650954356026L217.08,166.00675177478368L217.35000000000002,166.39319253987202L217.62,166.81821976486103L217.89000000000001,167.13437033572964L218.16000000000003,166.4806111359519L218.43,166.92363120935718L218.70000000000002,166.69414083526993L218.97000000000003,167.08859529030312L219.24,166.9644507674172L219.51,164.86035357897526L219.77999999999997,165.58026296820427L220.04999999999998,166.42374059882954L220.32,166.28104331537062L220.58999999999997,165.4430667048706L220.85999999999999,165.77070862758427L221.13,166.04115063288054L221.39999999999998,166.6875189008678L221.67,166.72648442301792L221.94,166.63812854470436L222.20999999999998,166.66853746317548L222.48,167.74315246007026L222.75,167.85291479421227L223.01999999999998,168.42091770335094L223.29,167.94264133337882L223.56,167.71079216507076L223.82999999999998,167.7071268153235L224.1,167.539199533305L224.36999999999998,167.471643537676L224.64,166.95699179144876L224.91,166.86960181838083L225.17999999999998,166.88444637651384L225.45,166.80204699705718L225.72,166.83362180320063L225.98999999999998,166.9180126261403L226.26,167.12796378702683L226.53,166.59943542541274L226.79999999999998,166.91457690725264L227.07,167.31812551028472L227.34,167.07652611247443L227.60999999999999,167.17693356185237L227.88,167.16373071436126L228.15,166.75092614992045L228.42,166.80497971055368L228.69,166.7421007937782L228.95999999999998,166.79954489452481L229.23,167.30703045732824L229.5,167.94589542227573L229.76999999999998,168.20157510280055L230.04,167.58447533575347L230.31,167.77729148305437L230.57999999999998,167.70498575276153L230.85,167.37994943509204L231.12,167.62230796849178L231.39,167.8534044132399L231.66,166.36265566469552L231.93,166.03651982910137L232.2,166.14933478038003L232.47,167.2629814317642L232.74,166.6936902050696L233.01,166.40612457646003L233.28,167.00158147788574L233.55,167.32011957437012L233.82,167.5990966082056L234.09,166.9119204760372L234.35999999999999,167.30459281792386L234.63,167.45942673726185L234.9,167.38925326420429L235.17,167.3982513651767L235.44,167.87271332738752L235.71,168.28203092846033L235.98,167.10735438091646L236.25,166.44796351589522L236.52,167.48855327110334L236.79,167.79092977295994L237.06,168.20548952725423L237.33,168.5706122657602L237.6,167.911155997585L237.87,168.2700130707722L238.14000000000001,168.67402306319576L238.41,168.78308383637463L238.68,167.949320484815L238.95,167.6316267947368L239.22,167.2048858374481L239.49,166.78753127023853L239.76,167.67423113192226L240.03,168.32461632157924L240.3,169.08624736465475L240.57,168.87976276194328L240.84,168.63498281002302L241.11,168.11969833015294L241.38,168.65969341111733L241.65,168.6865999306392L241.92000000000002,168.36716736832605L242.19,168.4745095212295L242.46,168.80378630595348L242.73000000000002,168.68705083629482L243,169.09597308948761L243.27,168.5079390857339L243.54000000000002,168.49947207532878L243.81,169.13336415882952L244.08,168.76605467936696L244.35,168.43921911390436L244.62,168.47816691014413L244.89000000000001,168.16002086288273" style="fill: none;" fill="none"></path></g></g></g></g><g opacity="0.2"><g><g><g><path stroke="rgb(255, 112, 67)" stroke-width="2px" d="M35.1,-14.843518638052046L35.370000000000005,0.9650095347315073L35.64,-12.777115476317704L35.910000000000004,0.34340305533260107L36.18,-1.1100273365154862L36.45,13.594333872199059L36.720000000000006,18.10349987167865L36.99,28.161029655486345L37.260000000000005,13.842434538993984L37.53,9.026730640791357L37.800000000000004,31.69962452771142L38.06999999999999,31.72979099722579L38.339999999999996,27.20558297401294L38.61,35.1274647731334L38.879999999999995,34.272686320357025L39.15,24.049230651464313L39.419999999999995,43.464403399731964L39.69,45.49594203522429L39.96,54.42127105593681L40.23,53.00817595375702L40.5,47.86871825158596L40.769999999999996,51.318462156224996L41.04,54.681765938177705L41.31,66.22141928924248L41.58,64.19907071208581L41.85,64.75826309574768L42.12,64.2194392606616L42.39,68.57225063536316L42.660000000000004,65.40766641078517L42.93,66.41976794740185L43.2,61.88000276265666L43.47,64.5244832597673L43.74,58.52010919293389L44.010000000000005,72.08018450578675L44.28,60.35510215256363L44.550000000000004,66.5911336876452L44.82,69.1949079958722L45.09,74.352508851327L45.36,70.39331426890567L45.63,81.9789488199167L45.900000000000006,80.17877917550504L46.17,77.7495644618757L46.44,75.12881121179089L46.709999999999994,84.44475892279297L46.98,71.19020153582096L47.25,86.9729728186503L47.519999999999996,81.88333924440667L47.79,87.51541292108595L48.059999999999995,88.3685223273933L48.33,87.37730447715148L48.6,97.80475471448153L48.87,94.79852384934202L49.14,102.52382906433195L49.41,91.54129209159873L49.68,90.71271354728378L49.95,98.03339347522706L50.22,103.50085486820899L50.49,103.6500233206898L50.76,101.08810395863838L51.03,102.43867678614333L51.3,101.17497679707594L51.57,94.18302175286226L51.84,95.70176646625623L52.11,99.17184801120311L52.38,94.79758629854769L52.65,93.11166906659491L52.92,103.54689788469113L53.190000000000005,97.51250673830509L53.46,99.43361013242975L53.730000000000004,102.50936399493366L54,102.55145590449683L54.27,104.98744468018413L54.540000000000006,105.29393621650524L54.81,105.1392197299283L55.08,109.29579966282472L55.349999999999994,112.1003437768668L55.62,110.84942950797267L55.89,112.02156375325285L56.16,110.73728916049004L56.43,113.1403348739259L56.699999999999996,107.0084951100871L56.97,109.97445250209421L57.239999999999995,106.79425960220397L57.51,114.28859763359651L57.78,118.442323703086L58.05,119.39897580700926L58.32,111.1540613968391L58.589999999999996,115.6745243682526L58.86,112.88127207476646L59.13,112.92469819122925L59.4,109.70710113574751L59.67,121.3401180615183L59.94,116.79774627950974L60.21,117.8767436107155L60.480000000000004,114.29318751138635L60.75,126.73123088129796L61.02,117.6245166901499L61.29,111.47144809761085L61.56,114.16399610275403L61.830000000000005,112.12344770715572L62.1,122.78209694009274L62.370000000000005,113.41596450470388L62.64,120.45536374021322L62.910000000000004,124.84772739512846L63.18000000000001,123.86016187188216L63.449999999999996,118.68217701371759L63.72,116.51325112720951L63.989999999999995,113.711205431493L64.25999999999999,122.92992088291794L64.53,122.92343014664948L64.8,118.4216821314767L65.07,131.24547613947652L65.34,127.68713603541255L65.61,124.5176373962313L65.88,116.72878478234634L66.15,121.82541392790154L66.42,123.21287062182091L66.69,126.92591175832786L66.96,127.50036767497659L67.23,121.74562423420139L67.5,128.14209028542973L67.77,124.98012296087109L68.04,129.0585204300005L68.31,130.8810470548924L68.58,122.02167627797462L68.85,128.3365084421821L69.12,121.21381142456084L69.39,120.28722791397013L69.66,122.8317356184125L69.93,126.72246838733554L70.2,128.08029950642958L70.47,126.84127976931632L70.74000000000001,126.7343062539585L71.01,128.357933023246L71.28,132.85949043743312L71.55,127.27979082078673L71.82000000000001,122.77995911822654L72.09,122.76292351121083L72.36,128.27798878820613L72.63000000000001,118.76072522532195L72.9,130.43771946500055L73.17,134.90541944734287L73.44000000000001,134.77065167203546L73.71000000000001,126.49194937362336L73.98,128.02677153772675L74.25,135.85538248694502L74.52000000000001,131.1787760972511L74.79,131.58955212961882L75.06,127.798256410053L75.33000000000001,132.27984193176962L75.60000000000001,129.88739260286093L75.87,127.05996091640554L76.13999999999999,134.7974620187888L76.41,135.68695818353444L76.67999999999999,139.43028169556055L76.94999999999999,130.02007664577104L77.22,135.96748935047071L77.49,128.98795685428195L77.75999999999999,125.5427719191648L78.03,129.95066182734445L78.3,122.05023036617786L78.57,128.07233547605574L78.83999999999999,125.83865161682479L79.11,127.71314534288831L79.38,124.74890851113014L79.64999999999999,129.69437562092207L79.92,134.58435981406365L80.19,134.37404708052054L80.46,136.34237058099825L80.72999999999999,127.32196515239775L81,134.88460272888187L81.27,134.4005560716614L81.53999999999999,135.01613028743304L81.81,132.78142130398192L82.08,137.86881145311054L82.35,141.82260996708646L82.62,133.5298238012474L82.89,137.08799648552667L83.16,133.56370956567116L83.42999999999999,135.7163957330631L83.7,139.38732693018392L83.97,138.9408879079856L84.24,138.76225099770818L84.51,142.04699368961155L84.78,138.4798627590062L85.05,137.12593638442922L85.32000000000001,139.5020816019969L85.59,140.28278066357598L85.86,142.6348844000604L86.13,141.9826710083289L86.4,135.14369901199825L86.67,136.30693682748824L86.94,141.46688928699587L87.21000000000001,132.3533675498329L87.48,133.66379568865523L87.75,128.5022128180135L88.02000000000001,143.0795384697849L88.29,138.70927165076137L88.56,135.8389109558193L88.83,135.09610027936287L89.10000000000001,134.9957952228142L89.37,139.0851702784421L89.64,140.714764919132L89.91000000000001,138.28555278119165L90.18,133.94819038908463L90.45,134.985222019488L90.72,138.395606820588L90.99000000000001,141.60003695392516L91.26,137.71450192539487L91.53,141.4902069994714L91.80000000000001,133.15532892406918L92.07000000000001,143.20517800329253L92.34,143.18465491337702L92.61000000000001,141.10079115594272L92.88,145.89605438627768L93.14999999999999,144.80095384747256L93.41999999999999,139.96088135568425L93.69,139.21412729937583L93.96,139.19997903972398L94.22999999999999,133.9139517552685L94.5,139.0803357101977L94.77,145.51738689292688L95.03999999999999,139.79867218981963L95.30999999999999,140.2532349351095L95.58,136.61454621283337L95.85,131.5451833109837L96.11999999999999,135.2461573445471L96.39,141.9185518064769L96.66,139.64232529210858L96.92999999999999,141.06760082754772L97.2,138.5800519095501L97.47,139.8884066187311L97.74,136.15692870039493L98.00999999999999,141.32559471577406L98.28,141.15921293373685L98.55,140.00491791043896L98.82,146.8018263297854L99.09,137.91492143750656L99.36,144.58581942413002L99.63,140.6837613506941L99.9,144.40177356696222L100.17,143.93695700378157L100.44,143.11938695423305L100.71,144.64712597359903L100.98,145.84348972525913L101.25,148.5436978294747L101.52,147.95563712355215L101.79,147.0629908911651L102.06,147.9114614815917L102.33,142.32946435036138L102.6,142.5910075380234L102.87,146.77765606425237L103.14,145.65916311799083L103.41,144.8781523980433L103.68,147.17046924156602L103.95,146.14257100434043L104.22,149.48886236047838L104.49000000000001,144.27165233460255L104.76,140.12584650877398L105.03,147.977100339951L105.3,147.57770885294303L105.57000000000001,145.7302727397764L105.84,149.65367039653938L106.11,150.79870581789874L106.38000000000001,146.96806129754987L106.65,146.07150516926777L106.92,149.88734462927096L107.19000000000001,149.97645574144553L107.46000000000001,147.08874262974132L107.73,145.67236609978136L108,143.8475651415065L108.27000000000001,143.803963878192L108.54,141.67186261725146L108.81,145.82540838851128L109.08000000000001,154.09393413970247L109.35000000000001,140.85804534656927L109.62,144.26941921224352L109.88999999999999,149.84492045582738L110.16,149.12549961113837L110.42999999999999,145.53653714060783L110.69999999999999,147.47719516558573L110.97,145.82039867341518L111.24,141.15762888500467L111.50999999999999,140.14007976616267L111.78,149.1744686103193L112.05,149.36536322452594L112.32,151.10600096918643L112.58999999999999,148.18895848689135L112.86,149.73497201967984L113.13,148.47910212515853L113.39999999999999,151.07413712062407L113.67,148.25324510852806L113.94,144.2644738893723L114.21,144.18397330550943L114.47999999999999,144.14580417028628L114.75,147.02458736824337L115.02,146.88351430627517L115.28999999999999,146.83671403722838L115.56,151.63528960361145L115.83,152.98319144162815L116.1,147.54962869151495L116.37,148.14356196834706L116.64,147.52000054100063L116.91,153.14587453426793L117.17999999999999,148.62152742384933L117.45,148.16431687027216L117.72,147.7563740957994L117.99,153.72287008026615L118.26,149.4197823816212L118.53,147.67617229185998L118.8,146.7284166177269L119.07000000000001,150.7140738288872L119.34,150.64693334384356L119.61,150.150564590469L119.88,153.08235546795186L120.15,148.0625385196181L120.42,151.96631972899195L120.69,151.04617544088978L120.96000000000001,152.75436980696395L121.23,153.2722919258522L121.5,147.13295433134772L121.77000000000001,149.8203329286771L122.04,149.23456201027147L122.31,150.0128734081518L122.58,150.66747188789304L122.85000000000001,153.645887887571L123.12,149.35575075319503L123.39,149.21068279759493L123.66000000000001,152.63117202662397L123.93,153.94643988506868L124.2,154.13980200933293L124.47,149.45821423712187L124.74000000000001,156.67371461709263L125.01,151.5017787645338L125.28,155.79141750308918L125.55000000000001,146.86828425724525L125.82000000000001,150.367120794137L126.09,151.87912235374097L126.36000000000001,146.14086074684747L126.63,149.31272129283752L126.89999999999999,156.40237093280302L127.16999999999999,148.62509990448598L127.44,152.22630462481175L127.71,149.84326171211433L127.97999999999999,155.15824489225633L128.25,153.6130478528794L128.51999999999998,155.2187246455578L128.79,154.99810915603302L129.06,156.4773054527468L129.32999999999998,154.5200535514159L129.6,154.05218994815368L129.87,157.4289877647534L130.14,154.6931913656881L130.41,155.36040041875094L130.68,153.06829220603686L130.95,152.38109838205855L131.22,157.10204268211965L131.49,155.64450149063487L131.76,153.8846645602025L132.03,153.83939940179698L132.3,156.7816102291108L132.57,151.86536817450542L132.84,154.84213058184832L133.10999999999999,150.9438484684797L133.38,154.85934391140472L133.65,156.3513722906937L133.92,150.26771722873673L134.19,153.660522952443L134.46,155.43661119259195L134.73,153.9469936582027L135,154.94584585062694L135.27,157.11323018727126L135.54,154.64649412420113L135.81,155.25323372671846L136.08,154.1614712808514L136.35,152.75523266277742L136.62,152.43258382938802L136.89000000000001,150.73710048850626L137.16,153.61185273318551L137.43,149.2540058864979L137.7,149.3400751099689L137.97,149.48229950491805L138.24,153.06639392324723L138.51,149.41492720786482L138.78,148.43937727378216L139.05,150.89197151642293L139.32,152.45788224670105L139.59,153.05519225180615L139.86,152.10251701169182L140.13,152.68705159937963L140.4,155.295683657052L140.67000000000002,153.16435767849907L140.94,148.57656877243426L141.21,150.17214886425063L141.48000000000002,154.70724947622512L141.75,155.5917166082072L142.02,158.58736139157554L142.29000000000002,156.0480720330379L142.56,157.852206950658L142.83,152.72971788758878L143.1,152.4879997781245L143.37,158.1956132616615L143.64000000000001,155.0879517638823L143.91,158.32553487812402L144.18,158.98308252176503L144.45000000000002,155.22736608213745L144.72,157.10906787385466L144.99,159.04005289881025L145.26000000000002,156.3566048028879L145.53,151.9759605329018L145.8,152.12801890843548L146.07000000000002,158.36884766427102L146.34,157.83884942752775L146.61,155.8339266742696L146.88000000000002,155.79318056220654L147.15,157.31349387019873L147.42000000000002,153.67864807590377L147.69,157.5004850277328L147.96,155.36623693001457L148.23000000000002,156.79644748556893L148.5,155.40585360245313L148.77,154.62263809272554L149.04000000000002,158.18735560274217L149.31,156.37680721952347L149.58,157.76205139659578L149.85000000000002,153.0341797809815L150.12,156.2261538823368L150.39000000000001,155.78542645048583L150.66000000000003,155.63948791200528L150.93,156.27624073054176L151.20000000000002,159.3519289129763L151.47000000000003,157.28865907690488L151.74,154.85897816356737L152.01,153.26021709584165L152.27999999999997,156.79091619345127L152.54999999999998,157.3789344005054L152.82,160.81529244943522L153.08999999999997,161.7219800503808L153.35999999999999,158.5754089067923L153.63,155.48191112279892L153.89999999999998,157.7330092153279L154.17,158.14529331360245L154.44,153.49974071828183L154.70999999999998,156.30830548284575L154.98,162.85232760524377L155.25,157.13886344415369L155.51999999999998,159.71983260201523L155.79,155.58408097818028L156.06,157.356659842073L156.32999999999998,157.55395117989974L156.6,158.78672100766562L156.86999999999998,156.53335759666516L157.14,154.2779078775784L157.41,156.74245589284692L157.67999999999998,155.3758390985895L157.95,154.17251841095276L158.22,154.61773913225625L158.48999999999998,160.01670007640496L158.76,155.34559278271627L159.03,153.67922245454974L159.29999999999998,159.8194602523581L159.57,160.3648005806026L159.84,159.6643368069199L160.10999999999999,159.66142627835507L160.38,155.18557552818675L160.65,156.67604819132248L160.92,157.94655701424927L161.19,160.16304814943578L161.45999999999998,154.42896431009285L161.73,159.93527610803721L162,158.3884293398587L162.26999999999998,156.72495537396753L162.54,156.73472109879367L162.81,159.75249748985516L163.07999999999998,155.47080346400617L163.35,155.0299549747724L163.62,153.75133917073254L163.89,160.2532024156535L164.16,156.75082816992654L164.43,158.78230112534948L164.7,157.60489959607366L164.97,156.64259900618345L165.24,158.49407895107288L165.51,158.87722556758672L165.78,159.73777098802384L166.05,158.09462951106252L166.32,160.151399595954L166.59,156.32251942256698L166.85999999999999,154.81700988707598L167.13,157.11037117248634L167.4,154.63870524067897L167.67,159.88030575349694L167.94,156.0828348195646L168.21,160.3729564998066L168.48,162.69765619322425L168.75,158.83204411907354L169.02,157.84768790431553L169.29,157.99646227638004L169.56,162.1761422760319L169.83,154.89174607896712L170.1,156.3185219532461L170.37,159.70794708514586L170.64000000000001,161.2589368490735L170.91,155.83734332572203L171.18,155.03831823694054L171.45,161.41489996912424L171.72,161.8287487984635L171.99,161.88880613876972L172.26,158.50309128686786L172.53,159.71719123295043L172.8,158.11526335560484L173.07,158.19264091656078L173.34,159.43327561067417L173.61,156.04912291414803L173.88,161.1799726636964L174.15,162.4748217476299L174.42000000000002,162.26387797028292L174.69,162.37388693512185L174.96,161.59843068849295L175.23000000000002,157.7323356726556L175.5,159.25979651761008L175.77,161.3411206456949L176.04000000000002,164.75615585327614L176.31,162.08897967258235L176.58,160.22574170742882L176.85,161.96547409740742L177.12,160.9847277107765L177.39000000000001,161.51095256314147L177.66,164.15702869958477L177.93,161.58060048142215L178.20000000000002,163.4602481611655L178.47,163.47339318995364L178.74,161.2879725911189L179.01000000000002,164.47366845054785L179.28,161.177378944878L179.55,164.51804499624996L179.82000000000002,161.65919247973943L180.09,164.12929368048208L180.36,160.25603953708196L180.63000000000002,161.6876100564259L180.9,163.60305723751662L181.17000000000002,162.22191613301402L181.44,163.33579344459577L181.71,160.72072345227934L181.98000000000002,162.89016834012L182.25,160.5995269822888L182.52,162.07498852995923L182.79000000000002,162.0670116211404L183.06,160.82444129674695L183.33,162.8888148155529L183.60000000000002,158.62740691623185L183.87,161.0297198461485L184.14000000000001,163.04902911029058L184.41000000000003,163.8024683673866L184.68,163.32507600268582L184.95000000000002,160.60637187579414L185.22000000000003,161.94489176664501L185.49,161.92506926413625L185.76,162.22246990614804L186.02999999999997,162.55011171265505L186.29999999999998,162.1289427751908L186.57,159.84456678084098L186.83999999999997,162.83759723987896L187.10999999999999,163.2250207879697L187.38,163.08595418772893L187.64999999999998,161.03565680928295L187.92,164.40227550297277L188.19,161.24471904581878L188.45999999999998,161.26168510923162L188.73,164.54998482763767L189,163.84339735336835L189.26999999999998,161.55539607675746L189.54,164.08641103439732L189.81,159.63202478847234L190.07999999999998,163.65691103087738L190.35,166.2965002945857L190.61999999999998,162.68539848929504L190.89,164.33589613402728L191.16,163.33873745711753L191.42999999999998,163.91361321107252L191.7,163.7246761205024L191.97,162.388980472635L192.23999999999998,161.21234907436883L192.51,161.15456091606757L192.78,164.8823517356068L193.04999999999998,165.0389987010858L193.32,164.90790900966385L193.59,166.44706348265754L193.85999999999999,163.91813483310398L194.13,164.16054451506352L194.4,161.94211388606345L194.67,163.34953989676433L194.94,163.5037940471666L195.20999999999998,164.04381171410205L195.48,162.81386097794166L195.75,165.36633271275787L196.01999999999998,164.25575743446825L196.29,162.87257638428127L196.56,162.70727896731114L196.82999999999998,162.0597095428384L197.1,164.7434126319713L197.37,161.15985910833115L197.64,160.9801172274747L197.91,162.72458630951587L198.18,163.45885600126348L198.45,165.0485094327014L198.72,165.9269546038122L198.99,163.34114057495026L199.26,165.9273435328505L199.53,164.38120379130123L199.8,162.48611228034133L200.07,163.05843939003535L200.34,164.41072891425574L200.60999999999999,166.1921629969147L200.88,161.5927731876145L201.15,163.3091170336702L201.42,166.69459942964022L201.69,164.9814552332391L201.96,166.0977794493665L202.23,166.91587880300358L202.5,162.0877085700631L202.77,164.09017669170862L203.04,165.74961068941047L203.31,165.87445175932953L203.58,167.8508133412397L203.85,167.8853192027891L204.12,166.0535097947577L204.39000000000001,165.33862087485613L204.66,165.71557939855848L204.93,166.74626903873286L205.2,167.4196900097304L205.47,164.64955323713366L205.74,165.95864974474534L206.01,162.8471994084539L206.28,165.83213834051276L206.55,164.96624192618765L206.82,165.55220602126792L207.09,165.32923120062333L207.36,159.8682399383979L207.63,160.1531871241168L207.9,165.37393614667235L208.17000000000002,165.711057776527L208.44,164.35578302876092L208.71,163.70317942014663L208.98000000000002,165.49600062385434L209.25,166.38606537194573L209.52,166.63591364372405L209.79000000000002,163.20496776129585L210.06,165.12955091125332L210.33,164.5411321845604L210.6,166.70581526737078L210.87,164.8459469473455L211.14000000000001,167.49529742842424L211.41,165.59719042957295L211.68,164.01235997577896L211.95000000000002,165.5190311470069L212.22,167.96057439601282L212.49,164.7380745165283L212.76000000000002,166.0112749344553L213.03,166.51718854732462L213.3,166.59855005523423L213.57000000000002,167.5410429528274L213.84,166.06123428605497L214.11,164.43183282203972L214.38000000000002,164.02384110947605L214.65,166.19045402726624L214.92000000000002,166.78250125583145L215.19,164.0911503021489L215.46,165.96297175087966L215.73000000000002,166.23956855287543L216,165.24607250571717L216.27,166.27866815574816L216.54000000000002,167.20930708866217L216.81,165.13883240654832L217.08,166.17211512161884L217.35000000000002,166.97285368750454L217.62,167.45576060234453L217.89000000000001,167.60859619203256L218.16000000000003,165.49997233628528L218.43,167.58816131946514L218.70000000000002,166.34990527413902L218.97000000000003,167.68027697285288L219.24,166.77823398308828L219.51,161.7042077963124L219.77999999999997,166.66012705204776L220.04999999999998,167.68895704476745L220.32,166.06699739018222L220.58999999999997,164.18610178912058L220.85999999999999,166.26217151165474L221.13,166.44681364082498L221.39999999999998,167.65707130284864L221.67,166.78493270624313L221.94,166.50559472723398L222.20999999999998,166.7141508408822L222.48,169.35507495541242L222.75,168.01755829542526L223.01999999999998,169.27292206705897L223.29,167.22522677842062L223.56,167.36301841260865L223.82999999999998,167.70162879070267L224.1,167.28730861027725L224.36999999999998,167.37030954423244L224.64,166.1850141721079L224.91,166.7385168587789L225.17999999999998,166.90671321371337L225.45,166.67844792787218L225.72,166.88098401241587L225.98999999999998,167.04459886054974L226.26,167.44289052835666L226.53,165.80664288299158L226.79999999999998,167.3872891300125L227.07,167.92344841483282L227.34,166.714127015759L227.60999999999999,167.32754473591922L227.88,167.14392644312466L228.15,166.13171930325916L228.42,166.8860600515036L228.69,166.64778241861495L228.95999999999998,166.8857110456447L229.23,168.06825880153337L229.5,168.904192869697L229.76999999999998,168.5850946235878L230.04,166.65882568518282L230.31,168.06651570400572L230.57999999999998,167.59652715732227L230.85,166.89239495858783L231.12,167.9858457685914L231.39,168.20004908036208L231.66,164.126532541879L231.93,165.5473160757101L232.2,166.318557207298L232.47,168.93345140884048L232.74,165.83975336502772L233.01,165.97477613354567L233.28,167.8947668300243L233.55,167.79792671909672L233.82,168.01756215895875L234.09,165.8811562777846L234.35999999999999,167.89360133075388L234.63,167.69167761626886L234.9,167.2839930546179L235.17,167.41174851663527L235.44,168.58440627070377L235.71,168.89600733006955L235.98,165.3453395596007L236.25,165.45887721836334L236.52,169.04943790391553L236.79,168.2444945257448L237.06,168.82732915869565L237.33,169.11829637351912L237.6,166.92197159532225L237.87,168.80829868055298L238.14000000000001,169.28003805183107L238.41,168.94667499614297L238.68,166.69867545747547L238.95,167.15508625961957L239.22,166.56477440151502L239.49,166.16149941942422L239.76,169.0042809244478L240.03,169.30019410606474L240.3,170.22869392926805L240.57,168.57003585787606L240.84,168.2678128821426L241.11,167.3467716103478L241.38,169.4696860325639L241.65,168.72695970992208L241.92000000000002,167.8880185248563L242.19,168.63552275058464L242.46,169.29770148303942L242.73000000000002,168.51194763180683L243,169.70935646927683L243.27,167.62588808010332L243.54000000000002,168.4867715597211L243.81,170.08420228408067L244.08,168.2150904601731L244.35,167.94896576571045L244.62,168.53658860450378L244.89000000000001,167.68280179199064" style="fill: none;" fill="none"></path></g></g></g></g></g></g><g transform="translate(60, 177)" clip-path="url(#clip_1)"><clipPath id="clip_1"><rect width="270" height="23"></rect></clipPath><g><g><line x1="0" y1="0" x2="0" y2="5" style="visibility: inherit;" fill="rgb(0, 0, 0)" stroke="rgb(204, 204, 204)" stroke-width="1px"></line><line x1="27" y1="0" x2="27" y2="5" style="visibility: inherit;" fill="rgb(0, 0, 0)" stroke="rgb(204, 204, 204)" stroke-width="1px"></line><line x1="54" y1="0" x2="54" y2="5" style="visibility: inherit;" fill="rgb(0, 0, 0)" stroke="rgb(204, 204, 204)" stroke-width="1px"></line><line x1="81" y1="0" x2="81" y2="5" style="visibility: inherit;" fill="rgb(0, 0, 0)" stroke="rgb(204, 204, 204)" stroke-width="1px"></line><line x1="108" y1="0" x2="108" y2="5" style="visibility: inherit;" fill="rgb(0, 0, 0)" stroke="rgb(204, 204, 204)" stroke-width="1px"></line><line x1="135" y1="0" x2="135" y2="5" style="visibility: inherit;" fill="rgb(0, 0, 0)" stroke="rgb(204, 204, 204)" stroke-width="1px"></line><line x1="162" y1="0" x2="162" y2="5" style="visibility: inherit;" fill="rgb(0, 0, 0)" stroke="rgb(204, 204, 204)" stroke-width="1px"></line><line x1="189" y1="0" x2="189" y2="5" style="visibility: inherit;" fill="rgb(0, 0, 0)" stroke="rgb(204, 204, 204)" stroke-width="1px"></line><line x1="216" y1="0" x2="216" y2="5" style="visibility: inherit;" fill="rgb(0, 0, 0)" stroke="rgb(204, 204, 204)" stroke-width="1px"></line><line x1="243" y1="0" x2="243" y2="5" style="visibility: inherit;" fill="rgb(0, 0, 0)" stroke="rgb(204, 204, 204)" stroke-width="1px"></line><line x1="270" y1="0" x2="270" y2="5" style="visibility: inherit;" fill="rgb(0, 0, 0)" stroke="rgb(204, 204, 204)" stroke-width="1px"></line></g><g transform="translate(0, 8)"><text x="0" y="0" dx="0em" dy="0.95em" style="text-anchor: middle; visibility: hidden; font-family: Roboto, sans-serif; font-size: 12px; font-weight: 200;" fill="rgb(33, 33, 33)" stroke="none" stroke-width="1px">-100</text><text x="27" y="0" dx="0em" dy="0.95em" style="text-anchor: middle; visibility: inherit; font-family: Roboto, sans-serif; font-size: 12px; font-weight: 200;" fill="rgb(33, 33, 33)" stroke="none" stroke-width="1px">0</text><text x="54" y="0" dx="0em" dy="0.95em" style="text-anchor: middle; visibility: inherit; font-family: Roboto, sans-serif; font-size: 12px; font-weight: 200;" fill="rgb(33, 33, 33)" stroke="none" stroke-width="1px">100</text><text x="81" y="0" dx="0em" dy="0.95em" style="text-anchor: middle; visibility: inherit; font-family: Roboto, sans-serif; font-size: 12px; font-weight: 200;" fill="rgb(33, 33, 33)" stroke="none" stroke-width="1px">200</text><text x="108" y="0" dx="0em" dy="0.95em" style="text-anchor: middle; visibility: inherit; font-family: Roboto, sans-serif; font-size: 12px; font-weight: 200;" fill="rgb(33, 33, 33)" stroke="none" stroke-width="1px">300</text><text x="135" y="0" dx="0em" dy="0.95em" style="text-anchor: middle; visibility: inherit; font-family: Roboto, sans-serif; font-size: 12px; font-weight: 200;" fill="rgb(33, 33, 33)" stroke="none" stroke-width="1px">400</text><text x="162" y="0" dx="0em" dy="0.95em" style="text-anchor: middle; visibility: inherit; font-family: Roboto, sans-serif; font-size: 12px; font-weight: 200;" fill="rgb(33, 33, 33)" stroke="none" stroke-width="1px">500</text><text x="189" y="0" dx="0em" dy="0.95em" style="text-anchor: middle; visibility: inherit; font-family: Roboto, sans-serif; font-size: 12px; font-weight: 200;" fill="rgb(33, 33, 33)" stroke="none" stroke-width="1px">600</text><text x="216" y="0" dx="0em" dy="0.95em" style="text-anchor: middle; visibility: inherit; font-family: Roboto, sans-serif; font-size: 12px; font-weight: 200;" fill="rgb(33, 33, 33)" stroke="none" stroke-width="1px">700</text><text x="243" y="0" dx="0em" dy="0.95em" style="text-anchor: middle; visibility: inherit; font-family: Roboto, sans-serif; font-size: 12px; font-weight: 200;" fill="rgb(33, 33, 33)" stroke="none" stroke-width="1px">800</text><text x="270" y="0" dx="0em" dy="0.95em" style="text-anchor: middle; visibility: hidden; font-family: Roboto, sans-serif; font-size: 12px; font-weight: 200;" fill="rgb(33, 33, 33)" stroke="none" stroke-width="1px">900</text></g><line x1="0" y1="0" x2="270" y2="0" fill="rgb(0, 0, 0)" stroke="rgb(204, 204, 204)" stroke-width="1px"></line></g></g></g></g></svg>